<svg width="50" height="50" viewBox="0 0 50 50" xmlns="http://www.w3.org/2000/svg"><path d="M25 5C13.955 5 5 13.955 5 25C5 36.045 13.955 45 25 45C36.045 45 45 36.045 45 25C45 13.955 36.045 5 25 5ZM34.5117 26.1783L27.845 32.845C27.52 33.17 27.0933 33.3333 26.6667 33.3333C26.24 33.3333 25.8133 33.17 25.4883 32.845C24.8367 32.1933 24.8367 31.14 25.4883 30.4883L29.31 26.6667H16.6667C15.7467 26.6667 15 25.9217 15 25C15 24.0783 15.7467 23.3333 16.6667 23.3333H29.31L25.4883 19.5117C24.8367 18.86 24.8367 17.8067 25.4883 17.155C26.14 16.5033 27.1933 16.5033 27.845 17.155L34.5117 23.8217C35.1633 24.4733 35.1633 25.5267 34.5117 26.1783Z"/></svg>