<svg width="50" height="50" viewBox="0 0 50 50" xmlns="http://www.w3.org/2000/svg"><path d="M25 45C36.045 45 45 36.045 45 25C45 13.955 36.045 5 25 5C13.955 5 5 13.955 5 25C5 36.045 13.955 45 25 45ZM15.4883 23.8217L22.155 17.155C22.48 16.83 22.9067 16.6667 23.3333 16.6667C23.76 16.6667 24.1867 16.83 24.5117 17.155C25.1633 17.8067 25.1633 18.86 24.5117 19.5117L20.69 23.3333H33.3333C34.2533 23.3333 35 24.0783 35 25C35 25.9217 34.2533 26.6667 33.3333 26.6667H20.69L24.5117 30.4883C25.1633 31.14 25.1633 32.1933 24.5117 32.845C23.86 33.4967 22.8067 33.4967 22.155 32.845L15.4883 26.1783C14.8367 25.5267 14.8367 24.4733 15.4883 23.8217Z"/></svg>