<svg width="32" height="32" viewBox="0 0 32 32" xmlns="http://www.w3.org/2000/svg"><path d="M16.0002 3.19995C8.9314 3.19995 3.2002 8.93115 3.2002 16C3.2002 23.0688 8.9314 28.8 16.0002 28.8C23.069 28.8 28.8002 23.0688 28.8002 16C28.8002 8.93115 23.069 3.19995 16.0002 3.19995ZM16.0002 5.33328C21.8914 5.33328 26.6669 10.1088 26.6669 16C26.6669 21.8912 21.8914 26.6666 16.0002 26.6666C10.109 26.6666 5.33353 21.8912 5.33353 16C5.33353 10.1088 10.109 5.33328 16.0002 5.33328ZM14.9335 10.6666C14.6605 10.6666 14.3874 10.7711 14.1794 10.9791L9.9127 15.2458C9.49563 15.6629 9.49563 16.3371 9.9127 16.7541L14.1794 21.0208C14.5964 21.4379 15.2706 21.4379 15.6877 21.0208C16.1048 20.6037 16.1048 19.9295 15.6877 19.5125L13.2419 17.0666H21.3335C21.9223 17.0666 22.4002 16.5898 22.4002 16C22.4002 15.4101 21.9223 14.9333 21.3335 14.9333H13.2419L15.6877 12.4875C16.1048 12.0704 16.1048 11.3962 15.6877 10.9791C15.4797 10.7711 15.2066 10.6666 14.9335 10.6666Z"/></svg>