<svg width="51" height="50" viewBox="0 0 51 50" xmlns="http://www.w3.org/2000/svg"><path d="M46.0048 22.9467L44.4898 22.0384C43.8448 21.6517 43.4082 21.0134 43.2115 20.2884C43.2082 20.2751 43.2048 20.2617 43.1998 20.2484C42.9982 19.5167 43.0582 18.7367 43.4265 18.0717L44.2848 16.5267C45.1615 14.9467 44.0382 13.0017 42.2315 12.9717L40.4482 12.9417C39.6932 12.9284 38.9932 12.5934 38.4598 12.0601C38.4548 12.0551 38.4482 12.0484 38.4432 12.0434C37.9082 11.5101 37.5732 10.8101 37.5615 10.0551L37.5315 8.27173C37.4998 6.46173 35.5548 5.3384 33.9748 6.21673L32.4298 7.07506C31.7665 7.4434 30.9865 7.5034 30.2532 7.30173C30.2398 7.2984 30.2265 7.29506 30.2132 7.29006C29.4882 7.09173 28.8498 6.65673 28.4632 6.01173L27.5548 4.49673C26.6248 2.94673 24.3798 2.94673 23.4498 4.49673L22.5448 6.00506C22.1548 6.65506 21.5115 7.09339 20.7815 7.2934C20.7732 7.29506 20.7665 7.2984 20.7582 7.30006C20.0198 7.5034 19.2348 7.4434 18.5648 7.07173L17.0248 6.21673C15.4448 5.3384 13.4998 6.46173 13.4698 8.26839L13.4398 10.0517C13.4265 10.8067 13.0915 11.5067 12.5582 12.0401C12.5532 12.0451 12.5465 12.0517 12.5415 12.0567C12.0082 12.5917 11.3082 12.9267 10.5532 12.9384L8.76982 12.9684C6.96148 13.0001 5.83815 14.9451 6.71648 16.5251L7.57482 18.0701C7.94315 18.7351 8.00315 19.5134 7.80148 20.2467C7.79815 20.2601 7.79482 20.2734 7.78982 20.2867C7.59148 21.0117 7.15648 21.6501 6.51148 22.0367L4.99648 22.9451C3.44648 23.8751 3.44648 26.1217 4.99648 27.0501L6.51148 27.9601C7.15648 28.3467 7.59315 28.9851 7.78982 29.7101C7.79315 29.7234 7.79648 29.7367 7.80148 29.7501C8.00315 30.4834 7.94315 31.2617 7.57482 31.9267L6.71648 33.4751C5.83982 35.0551 6.96315 37.0001 8.76982 37.0301L10.5532 37.0601C11.3082 37.0734 12.0082 37.4084 12.5415 37.9417C12.5465 37.9467 12.5532 37.9534 12.5582 37.9584C13.0932 38.4917 13.4282 39.1917 13.4398 39.9467L13.4698 41.7284C13.4998 43.5351 15.4448 44.6584 17.0248 43.7817L18.5698 42.9234C19.2332 42.5551 20.0132 42.4951 20.7465 42.6967C20.7598 42.7001 20.7732 42.7034 20.7865 42.7084C21.5115 42.9067 22.1498 43.3417 22.5365 43.9867L23.4448 45.5017C24.3748 47.0517 26.6198 47.0517 27.5498 45.5017L28.4582 43.9867C28.8448 43.3417 29.4832 42.9051 30.2082 42.7084C30.2215 42.7051 30.2348 42.7017 30.2482 42.6967C30.9798 42.4951 31.7598 42.5551 32.4248 42.9234L33.9698 43.7817C35.5498 44.6584 37.4948 43.5351 37.5248 41.7284L37.5548 39.9467C37.5682 39.1917 37.9032 38.4917 38.4365 37.9584C38.4415 37.9534 38.4482 37.9467 38.4532 37.9417C38.9865 37.4067 39.6865 37.0717 40.4415 37.0601L42.2248 37.0301C44.0315 37.0001 45.1548 35.0551 44.2782 33.4751L43.4198 31.9301C43.0515 31.2651 42.9915 30.4867 43.1932 29.7534C43.1965 29.7401 43.1998 29.7267 43.2048 29.7134C43.4032 28.9884 43.8382 28.3501 44.4832 27.9634L45.9982 27.0534C47.5532 26.1234 47.5532 23.8767 46.0048 22.9467ZM35.0115 21.1784L24.0782 32.1117C23.7648 32.4251 23.3415 32.6001 22.8998 32.6001C22.4582 32.6001 22.0332 32.4251 21.7215 32.1117L15.9665 26.3567C15.3148 25.7051 15.3148 24.6517 15.9665 24.0001C16.6182 23.3484 17.6715 23.3484 18.3232 24.0001L22.8998 28.5767L32.6548 18.8217C33.3065 18.1701 34.3598 18.1701 35.0115 18.8217C35.6632 19.4734 35.6632 20.5267 35.0115 21.1784Z"/></svg>