<svg width="25" height="25" viewBox="0 0 25 25" xmlns="http://www.w3.org/2000/svg"><g clip-path="url(#clip0_1613_142)"><path d="M12.5004 2.42432C7.19879 2.42432 2.90039 6.72272 2.90039 12.0243C2.90039 17.3259 7.19879 21.6243 12.5004 21.6243C17.802 21.6243 22.1004 17.3259 22.1004 12.0243C22.1004 6.72272 17.802 2.42432 12.5004 2.42432ZM17.866 10.1899L11.818 16.2379C11.6676 16.3883 11.4644 16.4723 11.2524 16.4723C11.0404 16.4723 10.8364 16.3883 10.6868 16.2379L7.92439 13.4755C7.61159 13.1627 7.61159 12.6571 7.92439 12.3443C8.23719 12.0315 8.74279 12.0315 9.05559 12.3443L11.2524 14.5411L16.7348 9.05872C17.0476 8.74592 17.5532 8.74592 17.866 9.05872C18.1788 9.37152 18.1788 9.87712 17.866 10.1899Z"/></g><defs><clipPath id="clip0_1613_142"><rect width="24" height="24" transform="translate(0.5 0.0249023)"/></clipPath></defs></svg>