<svg width="77" height="77" viewBox="0 0 77 77" xmlns="http://www.w3.org/2000/svg"><path d="M67.703 10.5312C67.625 10.5323 67.5472 10.5406 67.4707 10.556C64.6245 10.6729 53.5872 13.4493 44.9218 22.1147C34.8955 32.141 11.2955 53.7461 10.1665 54.8776C7.57201 57.4721 7.57201 61.6763 10.1665 64.2709C12.7611 66.8654 16.9653 66.8654 19.5599 64.2709C26.7967 57.034 28.5223 55.3469 34.5644 46.9229C37.4993 42.8327 41.6029 51.7744 43.7847 55.3868C43.8071 55.4294 43.8318 55.4706 43.8589 55.5104L43.8638 55.5203C43.9787 55.6962 44.1356 55.8407 44.3203 55.9408C44.505 56.0409 44.7117 56.0935 44.9218 56.0938C45.2231 56.0925 45.5141 55.9838 45.7425 55.7872C45.7752 55.7608 45.8065 55.7327 45.8364 55.7032C46.0055 55.5498 53.8083 48.4728 56.3124 45.9688C66.4074 35.8738 68.9487 27.0304 68.9637 11.9254C68.9675 11.8827 68.9692 11.8398 68.9687 11.7969C68.9687 11.4612 68.8353 11.1393 68.598 10.9019C68.3606 10.6646 68.0387 10.5312 67.703 10.5312Z"/></svg>