<svg width="24" height="24" viewBox="0 0 24 24" xmlns="http://www.w3.org/2000/svg"><path d="M6.07399 3.85177C5.88446 3.85177 5.69471 3.92397 5.55027 4.06878L4.06878 5.55027C3.77916 5.8399 3.77916 6.30883 4.06878 6.59772L9.47098 11.9999L4.06878 17.4021C3.77916 17.6917 3.77916 18.1607 4.06878 18.4496L5.55027 19.9311C5.8399 20.2207 6.30883 20.2207 6.59772 19.9311L11.9999 14.5289L17.4021 19.9311C17.691 20.2207 18.1607 20.2207 18.4496 19.9311L19.9311 18.4496C20.2207 18.1599 20.2207 17.691 19.9311 17.4021L14.5289 11.9999L19.9311 6.59772C20.2207 6.30883 20.2207 5.83916 19.9311 5.55027L18.4496 4.06878C18.1599 3.77916 17.691 3.77916 17.4021 4.06878L11.9999 9.47098L6.59772 4.06878C6.45291 3.92397 6.26353 3.85177 6.07399 3.85177Z"/></svg>