<svg width="25" height="25" viewBox="0 0 25 25" xmlns="http://www.w3.org/2000/svg"><g clip-path="url(#clip0_1613_123)"><path d="M12.5004 2.42529C7.19879 2.42529 2.90039 6.72369 2.90039 12.0253C2.90039 17.3269 7.19879 21.6253 12.5004 21.6253C17.802 21.6253 22.1004 17.3269 22.1004 12.0253C22.1004 6.72369 17.802 2.42529 12.5004 2.42529ZM16.266 14.6597C16.5788 14.9725 16.5788 15.4781 16.266 15.7909C16.11 15.9469 15.9052 16.0253 15.7004 16.0253C15.4956 16.0253 15.2908 15.9469 15.1348 15.7909L12.5004 13.1565L9.86599 15.7909C9.70999 15.9469 9.50519 16.0253 9.30039 16.0253C9.09559 16.0253 8.89079 15.9469 8.73479 15.7909C8.42199 15.4781 8.42199 14.9725 8.73479 14.6597L11.3692 12.0253L8.73479 9.39089C8.42199 9.07809 8.42199 8.57249 8.73479 8.25969C9.04759 7.94689 9.55319 7.94689 9.86599 8.25969L12.5004 10.8941L15.1348 8.25969C15.4476 7.94689 15.9532 7.94689 16.266 8.25969C16.5788 8.57249 16.5788 9.07809 16.266 9.39089L13.6316 12.0253L16.266 14.6597Z"/></g><defs><clipPath id="clip0_1613_123"><rect width="24" height="24" transform="translate(0.5 0.0249023)"/></clipPath></defs></svg>