<svg width="32" height="32" viewBox="0 0 32 32" xmlns="http://www.w3.org/2000/svg"><path d="M6.40016 3.19995C5.8103 3.19995 5.3335 3.67675 5.3335 4.26662V10.6666C5.3335 15.6352 9.37751 14.9325 9.14391 18.1229C8.91031 21.3133 8.5335 24.5333 8.5335 26.6666C8.5335 27.2324 8.75826 27.775 9.15834 28.1751C9.55841 28.5752 10.101 28.8 10.6668 28.8C11.2326 28.8 11.7752 28.5752 12.1753 28.1751C12.5754 27.775 12.8002 27.2324 12.8002 26.6666C12.7998 26.6166 12.7978 26.5665 12.7939 26.5166C12.7786 24.3839 12.4184 21.2462 12.1897 18.1229C11.9561 14.9325 16.0002 15.6352 16.0002 10.6666V4.26662C16.0002 3.67675 15.5234 3.19995 14.9335 3.19995C14.3436 3.19995 13.8668 3.67675 13.8668 4.26662V9.59995C13.8668 10.1888 13.389 10.6666 12.8002 10.6666C12.2114 10.6666 11.7335 10.1888 11.7335 9.59995V4.26662C11.7335 3.67675 11.2567 3.19995 10.6668 3.19995C10.077 3.19995 9.60016 3.67675 9.60016 4.26662V9.59995C9.60016 10.1888 9.1223 10.6666 8.5335 10.6666C7.9447 10.6666 7.46683 10.1888 7.46683 9.59995V4.26662C7.46683 3.67675 6.99003 3.19995 6.40016 3.19995ZM21.3335 3.19995C21.0506 3.19995 20.7793 3.31233 20.5792 3.51237C20.3792 3.71241 20.2668 3.98372 20.2668 4.26662V26.6666C20.2668 27.2324 20.4916 27.775 20.8917 28.1751C21.2917 28.5752 21.8344 28.8 22.4002 28.8C22.966 28.8 23.5086 28.5752 23.9087 28.1751C24.3087 27.775 24.5335 27.2324 24.5335 26.6666C24.5328 26.59 24.5279 26.5135 24.5189 26.4375C24.4767 25.0534 24.0487 23.027 23.6856 21.0875C23.276 18.9019 23.3655 18.1333 24.5335 18.1333C25.7015 18.1333 26.6668 17.1786 26.6668 16V8.53328C26.6668 5.62406 24.3353 3.26336 21.4397 3.2062C21.4045 3.20235 21.369 3.20027 21.3335 3.19995Z"/></svg>