<svg width="435" height="276" viewBox="0 0 435 276" fill="none" xmlns="http://www.w3.org/2000/svg">
<path d="M43.95 188.2L38.53 221.64L0 215.41L17.24 108.96L92.62 121.17L86.98 155.97L50.14 150L49.1 156.45L85.94 162.42L80.8 194.17L43.96 188.2H43.95Z" fill="#FF5B2B"/>
<path d="M157.09 126.81C125.11 121.63 95 143.36 89.82 175.33C84.64 207.31 106.37 237.42 138.34 242.6C170.32 247.78 200.43 226.05 205.61 194.08C210.79 162.1 189.06 131.99 157.09 126.81ZM145.23 200.05C136.76 198.68 131 190.7 132.38 182.23C133.76 173.76 141.73 168 150.2 169.37C158.67 170.74 164.43 178.72 163.05 187.19C161.68 195.66 153.7 201.42 145.23 200.04V200.05Z" fill="#FF5B2B"/>
<path d="M276.8 146.19C244.82 141.01 214.71 162.74 209.53 194.71C204.35 226.69 226.08 256.8 258.05 261.98C290.02 267.16 320.14 245.43 325.32 213.46C330.5 181.48 308.77 151.37 276.8 146.19ZM264.94 219.43C256.47 218.06 250.71 210.08 252.09 201.61C253.46 193.14 261.44 187.38 269.91 188.75C278.38 190.12 284.14 198.1 282.76 206.57C281.38 215.04 273.41 220.8 264.94 219.42V219.43Z" fill="#FF5B2B"/>
<path d="M386.48 168.75L338.43 160.97L321.19 267.42L369.24 275.2C400.02 280.18 428.61 261.73 433.59 230.95C438.57 200.17 417.25 173.74 386.47 168.75H386.48ZM378.38 235.14L368.1 233.48L372.24 207.89L382.52 209.55C389.59 210.69 394.39 217.35 393.24 224.42C392.1 231.49 385.44 236.29 378.37 235.14H378.38Z" fill="#FF5B2B"/>
<path d="M218.01 33.84L238.19 139.77L199.84 147.07L179.66 41.14L218.01 33.84Z" fill="#1C03FF"/>
<path d="M148.35 122.39L154.69 155.67L116.34 162.97L96.1602 57.04L171.17 42.75L177.77 77.38L141.11 84.36L142.33 90.78L178.99 83.8L185.01 115.4L148.35 122.38V122.39Z" fill="#1C03FF"/>
<path d="M348.35 111.84L317.64 79.35L342.26 21.59L291.59 0L276.38 35.7L243.85 1.29L203.82 39.13L252.83 90.96L231.95 139.95L282.61 161.54L294.09 134.61L308.33 149.68L348.35 111.84Z" fill="#1C03FF"/>
<path d="M318.41 114.15L289.19 82.41C295.98 78.22 302.86 69.23 307.29 57.7C314.32 39.43 312.53 21.73 303.3 18.19C302.26 17.79 300.89 17.47 299.63 19.47C298.68 20.96 298.69 24.06 280.22 72.67L271.69 63.4C271.64 63.35 271.59 63.3 271.54 63.25C275.37 56.93 275.23 49.06 270.62 43.64C270.58 43.6 270.55 43.55 270.51 43.51C270.51 43.51 270.5 43.5 270.49 43.49C270.1 43.04 269.73 42.67 269.38 42.37L248.44 21.74C247.2 20.52 245.21 20.54 243.99 21.77C242.88 22.89 242.79 24.64 243.71 25.86L262.56 47.7C263.5 48.85 263.32 50.55 262.17 51.48C261.31 52.18 260.15 52.25 259.22 51.76L238.76 30.17C237.65 29 235.8 28.85 234.52 29.88C233.17 30.97 232.95 32.94 234.04 34.29L252.54 57.34C252.54 57.34 252.53 57.34 252.52 57.35C253.01 58.44 252.73 59.75 251.77 60.54C250.75 61.37 249.29 61.32 248.32 60.49L229.09 38.61C228 37.54 226.26 37.39 225 38.33C223.61 39.37 223.33 41.34 224.37 42.73L241.98 66.27C242.23 66.66 242.54 67.07 242.94 67.53C242.94 67.53 242.95 67.54 242.96 67.55C242.99 67.58 243.02 67.62 243.05 67.65C247.79 72.97 255.58 74.19 262.38 71.24C262.42 71.3 262.46 71.35 262.51 71.41L274.69 86.14L257.28 128.38C257.24 128.48 257.19 128.6 257.16 128.7C255.84 132.4 257.77 136.47 261.47 137.79C265.17 139.11 269.24 137.18 270.56 133.48L283.62 96.93L306.48 124.58C306.56 124.68 306.67 124.8 306.76 124.9C309.73 128.13 314.76 128.33 317.98 125.36C321.21 122.39 321.41 117.36 318.44 114.14L318.41 114.15Z" fill="#FAFDEF"/>
</svg>