<svg width="68" height="68" viewBox="0 0 68 68" xmlns="http://www.w3.org/2000/svg"><path d="M38.6238 4.5C38.2199 4.50045 37.8235 4.60964 37.4763 4.81609C37.1291 5.02255 36.8439 5.31866 36.6506 5.67334L18.7649 34.7256V34.73C18.5096 35.1043 18.3733 35.5469 18.3738 36C18.3738 36.5967 18.6108 37.169 19.0328 37.591C19.4547 38.0129 20.027 38.25 20.6238 38.25H32.9988L29.6677 60.3018C29.6381 60.4493 29.6234 60.5995 29.6238 60.75C29.6238 61.3467 29.8608 61.919 30.2828 62.341C30.7047 62.7629 31.277 63 31.8738 63C32.2826 62.9994 32.6836 62.8873 33.0335 62.676C33.3835 62.4646 33.6693 62.1619 33.8601 61.8003H33.8645L51.6887 32.8271L51.6668 32.7876C51.9331 32.4179 52.1238 31.9901 52.1238 31.5C52.1238 30.258 51.1158 29.25 49.8738 29.25H37.4988L40.7727 7.41357C40.8394 7.19868 40.8735 6.975 40.8738 6.75C40.8738 6.15326 40.6367 5.58097 40.2148 5.15901C39.7928 4.73705 39.2205 4.5 38.6238 4.5Z"/></svg>