<svg width="33" height="32" viewBox="0 0 33 32" xmlns="http://www.w3.org/2000/svg"><path d="M16.9489 0C15.9298 0 15.1027 0.827077 15.1027 1.84615V13.5385H13.872V4.30769C13.872 3.28862 13.0449 2.46154 12.0258 2.46154C11.0067 2.46154 10.1796 3.28862 10.1796 4.30769V13.5385V17.2308V21.8774C10.1796 21.8774 6.63494 19.5843 4.85032 18.8077C4.35309 18.5911 3.83382 18.4615 3.30705 18.4615C0.553823 18.4615 0.333496 20.9231 0.333496 20.9231L5.25657 24.6154L9.19648 29.3438C10.5996 31.0274 12.6788 32 14.8696 32H23.7181C26.4369 32 28.6412 29.7957 28.6412 27.0769V13.5385V8C28.6412 6.98092 27.8141 6.15385 26.795 6.15385C25.776 6.15385 24.9489 6.98092 24.9489 8V13.5385H23.7181V4.30769C23.7181 3.28862 22.891 2.46154 21.872 2.46154C20.8529 2.46154 20.0258 3.28862 20.0258 4.30769V13.5385H18.795V1.84615C18.795 0.827077 17.968 0 16.9489 0Z"/></svg>