<svg width="32" height="33" viewBox="0 0 32 33" xmlns="http://www.w3.org/2000/svg"><path d="M0 16.4248C0 7.58825 7.16344 0.424805 16 0.424805C24.8366 0.424805 32 7.58825 32 16.4248C32 25.2614 24.8366 32.4248 16 32.4248C7.16344 32.4248 0 25.2614 0 16.4248Z" fill-opacity="0.3"/><g clip-path="url(#clip0_1951_797)"><path d="M10.8001 6.8243C10.6941 6.8228 10.5888 6.84238 10.4904 6.88192C10.3921 6.92145 10.3025 6.98014 10.227 7.05457C10.1515 7.12901 10.0916 7.2177 10.0507 7.31551C10.0097 7.41332 9.98867 7.51828 9.98867 7.6243C9.98867 7.73032 10.0097 7.83528 10.0507 7.93309C10.0916 8.03089 10.1515 8.11959 10.227 8.19403C10.3025 8.26846 10.3921 8.32715 10.4904 8.36668C10.5888 8.40621 10.6941 8.4258 10.8001 8.4243H12.4001C12.5061 8.4258 12.6113 8.40621 12.7097 8.36668C12.8081 8.32715 12.8976 8.26846 12.9731 8.19403C13.0486 8.11959 13.1086 8.03089 13.1495 7.93309C13.1904 7.83528 13.2115 7.73032 13.2115 7.6243C13.2115 7.51828 13.1904 7.41332 13.1495 7.31551C13.1086 7.2177 13.0486 7.12901 12.9731 7.05457C12.8976 6.98014 12.8081 6.92145 12.7097 6.88192C12.6113 6.84238 12.5061 6.8228 12.4001 6.8243H10.8001ZM24.6016 6.82742C23.7203 6.89722 22.5075 8.13567 20.5016 11.0899L21.3923 12.3165L22.5141 12.2618C22.3685 12.5482 22.1779 12.8251 21.8563 12.9555L22.9344 14.4368C25.2144 10.1552 26.2545 7.59864 25.1641 6.96024C24.9903 6.85854 24.805 6.81132 24.6016 6.82742ZM10.4001 10.0243V12.4243C10.4001 12.4243 8.00007 13.2243 8.00007 15.6243H15.2001C15.2001 13.2243 12.8001 12.4243 12.8001 12.4243V10.0243H10.4001ZM17.0001 10.0915C16.8612 10.1172 16.7245 10.1691 16.5985 10.2493L14.5626 11.5446C15.677 12.2966 16.8001 13.6187 16.8001 15.6243H21.8188L18.1204 10.5384C17.857 10.176 17.4166 10.0143 17.0001 10.0915ZM23.6516 10.229C23.4756 10.577 23.2455 10.9235 22.7751 10.9915C22.3055 11.0595 22.1373 10.641 22.3141 10.293L23.6516 10.229ZM7.20007 17.2243C7.09406 17.2228 6.98881 17.2424 6.89043 17.2819C6.79206 17.3214 6.70252 17.3801 6.62702 17.4546C6.55153 17.529 6.49158 17.6177 6.45066 17.7155C6.40974 17.8133 6.38867 17.9183 6.38867 18.0243C6.38867 18.1303 6.40974 18.2353 6.45066 18.3331C6.49158 18.4309 6.55153 18.5196 6.62702 18.594C6.70252 18.6685 6.79206 18.7272 6.89043 18.7667C6.98881 18.8062 7.09406 18.8258 7.20007 18.8243H8.80007C9.24167 18.8243 9.60007 19.1827 9.60007 19.6243C9.60007 20.0659 9.24167 20.4243 8.80007 20.4243H7.28132C7.65732 23.0107 9.35687 24.8819 11.7001 26.0243H20.3001C22.6433 24.8819 24.3428 23.0107 24.7188 20.4243H15.2001C14.7585 20.4243 14.4001 20.0659 14.4001 19.6243C14.4001 19.1827 14.7585 18.8243 15.2001 18.8243H24.8001C24.9061 18.8258 25.0113 18.8062 25.1097 18.7667C25.2081 18.7272 25.2976 18.6685 25.3731 18.594C25.4486 18.5196 25.5086 18.4309 25.5495 18.3331C25.5904 18.2353 25.6115 18.1303 25.6115 18.0243C25.6115 17.9183 25.5904 17.8133 25.5495 17.7155C25.5086 17.6177 25.4486 17.529 25.3731 17.4546C25.2976 17.3801 25.2081 17.3214 25.1097 17.2819C25.0113 17.2424 24.9061 17.2228 24.8001 17.2243H7.20007Z"/></g><defs><clipPath id="clip0_1951_797"><rect width="24" height="24" transform="translate(4 4.4248)"/></clipPath></defs></svg>