<svg width="25" height="25" viewBox="0 0 25 25" xmlns="http://www.w3.org/2000/svg"><path d="M10.0999 1.9996C9.9119 1.99968 9.72993 2.06596 9.58593 2.18682C9.44192 2.30768 9.34508 2.4754 9.3124 2.66054L6.92803 12.9855L6.92959 12.9871C6.9102 13.0563 6.90021 13.1278 6.8999 13.1996C6.8999 13.4118 6.98419 13.6153 7.13422 13.7653C7.28425 13.9153 7.48773 13.9996 7.6999 13.9996H12.0999L10.9155 21.8402C10.905 21.8927 10.8998 21.9461 10.8999 21.9996C10.8999 22.2118 10.9842 22.4153 11.1342 22.5653C11.2842 22.7153 11.4877 22.7996 11.6999 22.7996C11.8453 22.7994 11.9878 22.7595 12.1123 22.6844C12.2367 22.6092 12.3383 22.5016 12.4062 22.373H12.4077L17.9452 12.0715L17.9374 12.0574C18.0321 11.926 18.0999 11.7738 18.0999 11.5996C18.0999 11.158 17.7415 10.7996 17.2999 10.7996H12.8999L15.6296 3.12773C15.676 3.02455 15.6999 2.91272 15.6999 2.7996C15.6999 2.58743 15.6156 2.38395 15.4656 2.23392C15.3156 2.08389 15.1121 1.9996 14.8999 1.9996H10.0999Z"/></svg>