<svg width="33" height="26" viewBox="0 0 33 26" xmlns="http://www.w3.org/2000/svg"><path d="M1.5641 0.692261C0.884713 0.692261 0.333328 1.24365 0.333328 1.92304V21.6154C0.333328 22.189 0.734328 22.6495 1.26602 22.7861L8.94871 25.0049V2.79564L2.04967 0.773992C1.88721 0.722299 1.73641 0.692261 1.5641 0.692261ZM21.2564 0.920627L11.4103 2.90621V25.0578L21.2564 23.0914V0.920627ZM23.7179 0.999955V23.2068L30.7107 25.2284C30.835 25.2703 30.9635 25.3078 31.1026 25.3078C31.7819 25.3078 32.3333 24.7564 32.3333 24.077V4.38459C32.3333 3.79997 31.9146 3.37526 31.3718 3.2091L23.7179 0.999955Z"/></svg>