<svg width="32" height="30" viewBox="0 0 32 30" xmlns="http://www.w3.org/2000/svg"><path d="M16 0.230713C15.3206 0.230713 14.7692 0.780865 14.7692 1.46148V9.19463C14.4917 9.35923 14.2429 9.56873 14.0481 9.82444L0.697115 25.596C0.267577 26.0391 0 26.6417 0 27.3076C0 28.6676 1.10154 29.7691 2.46154 29.7691C2.51938 29.7691 2.57319 29.756 2.62981 29.7523L2.63942 29.7691H16H29.3606L29.3702 29.7523C29.4268 29.756 29.4806 29.7691 29.5385 29.7691C30.8985 29.7691 32 28.6676 32 27.3076C32 26.6897 31.7648 26.1314 31.3894 25.6994L17.9519 9.82444C17.7571 9.56873 17.5083 9.35923 17.2308 9.19463V6.08406L22.9928 3.88215L22.9952 3.87974C23.11 3.83443 23.2085 3.75564 23.278 3.65362C23.3474 3.55159 23.3846 3.43104 23.3846 3.30763C23.3849 3.17314 23.341 3.04227 23.2599 2.93504C23.1787 2.82781 23.0646 2.75013 22.9351 2.71388L16.4519 0.317251V0.322059C16.3113 0.266188 16.1605 0.230713 16 0.230713ZM15.9255 11.4158H16.0745L23.3846 20.048L18.4615 17.4614L16 18.6922L14.7692 16.2307L9.76683 18.685L15.9255 11.4158Z"/></svg>