<svg width="33" height="24" viewBox="0 0 33 24" xmlns="http://www.w3.org/2000/svg"><path d="M10.9524 0.571411C9.68951 0.571411 8.66666 1.59427 8.66666 2.85712V21.1428C8.66666 22.4057 9.68951 23.4285 10.9524 23.4285H22.3809C23.6438 23.4285 24.6667 22.4057 24.6667 21.1428V2.85712C24.6667 1.59427 23.6438 0.571411 22.3809 0.571411H10.9524ZM2.95237 2.85712C1.68951 2.85712 0.666656 3.87998 0.666656 5.14283V18.8571C0.666656 20.12 1.68951 21.1428 2.95237 21.1428H6.38094V17.7142H2.95237C2.95237 14.3565 5.8998 15.3095 6.38094 13.866V12.9018C6.38094 12.9018 5.48403 12.0581 5.41889 11.4821C5.41889 11.4821 4.95237 11.3072 4.95237 10.5803C4.95237 10.2055 5.13094 10.1183 5.13094 10.1183C5.13094 10.1183 4.73809 9.57331 4.73809 8.87274C4.73809 7.65446 5.41517 6.83635 6.38317 6.48435V2.85712H2.95237ZM26.9524 2.85712V6.85712C27.9375 6.85712 28.5238 7.75608 28.5238 8.92408C28.5238 9.50694 28.2024 10.1183 28.2024 10.1183C28.2024 10.1183 28.3809 10.1792 28.3809 10.5803C28.3809 11.1586 27.9144 11.4821 27.9144 11.4821C27.8493 12.0593 26.9524 12.9018 26.9524 12.9018V13.8638C27.4335 15.3072 30.3809 14.344 30.3809 17.712H26.9524V21.1406H30.3809C31.6438 21.1406 32.6667 20.1177 32.6667 18.8549V5.14283C32.6667 3.87998 31.6438 2.85712 30.3809 2.85712H26.9524ZM16.6667 6.28569C17.3912 6.28569 17.8095 6.85712 17.8095 6.85712C18.7947 6.85712 19.3809 7.75608 19.3809 8.92408C19.3809 9.50694 19.0595 10.1183 19.0595 10.1183C19.0595 10.1183 19.2381 10.1792 19.2381 10.5803C19.2381 11.1586 18.7716 11.4821 18.7716 11.4821C18.7064 12.0593 17.8095 12.9018 17.8095 12.9018V13.8638C18.2907 15.3072 21.2381 14.344 21.2381 17.712H12.0952C12.0966 14.3572 15.0428 15.3091 15.5238 13.866V12.9018C15.5238 12.9018 14.6269 12.0581 14.5617 11.4821C14.5617 11.4821 14.0952 11.3072 14.0952 10.5803C14.0952 10.2055 14.2738 10.1183 14.2738 10.1183C14.2738 10.1183 13.8809 9.57331 13.8809 8.87274C13.8798 7.21331 15.1284 6.28569 16.6667 6.28569Z"/></svg>