<svg width="24" height="25" viewBox="0 0 24 25" xmlns="http://www.w3.org/2000/svg"><path d="M11.9765 2.87812C11.5525 2.88433 11.1482 3.05865 10.8526 3.36276C10.557 3.66688 10.3942 4.07591 10.4 4.49999V10.9H3.99999C3.78797 10.897 3.57747 10.9362 3.38072 11.0152C3.18397 11.0943 3.00489 11.2117 2.8539 11.3605C2.70291 11.5094 2.58301 11.6868 2.50118 11.8824C2.41934 12.078 2.3772 12.288 2.3772 12.5C2.3772 12.712 2.41934 12.922 2.50118 13.1176C2.58301 13.3132 2.70291 13.4906 2.8539 13.6394C3.00489 13.7883 3.18397 13.9057 3.38072 13.9848C3.57747 14.0638 3.78797 14.103 3.99999 14.1H10.4V20.5C10.397 20.712 10.4362 20.9225 10.5152 21.1193C10.5943 21.316 10.7117 21.4951 10.8605 21.6461C11.0094 21.7971 11.1868 21.917 11.3824 21.9988C11.578 22.0806 11.7879 22.1228 12 22.1228C12.212 22.1228 12.422 22.0806 12.6176 21.9988C12.8132 21.917 12.9906 21.7971 13.1394 21.6461C13.2883 21.4951 13.4057 21.316 13.4848 21.1193C13.5638 20.9225 13.603 20.712 13.6 20.5V14.1H20C20.212 14.103 20.4225 14.0638 20.6193 13.9848C20.816 13.9057 20.9951 13.7883 21.1461 13.6394C21.2971 13.4906 21.417 13.3132 21.4988 13.1176C21.5806 12.922 21.6228 12.712 21.6228 12.5C21.6228 12.288 21.5806 12.078 21.4988 11.8824C21.417 11.6868 21.2971 11.5094 21.1461 11.3605C20.9951 11.2117 20.816 11.0943 20.6193 11.0152C20.4225 10.9362 20.212 10.897 20 10.9H13.6V4.49999C13.6029 4.28606 13.5629 4.07372 13.4823 3.87552C13.4018 3.67732 13.2823 3.49729 13.1309 3.34608C12.9796 3.19486 12.7994 3.07554 12.6011 2.99516C12.4029 2.91478 12.1905 2.87498 11.9765 2.87812Z"/></svg>