<svg width="23" height="22" viewBox="0 0 23 22" xmlns="http://www.w3.org/2000/svg"><path d="M11.1237 2.19995C6.66028 2.19995 2.96906 5.53908 2.4068 9.85555C2.39092 9.9526 2.39471 10.0519 2.41796 10.1474C2.44121 10.243 2.48344 10.3329 2.54214 10.4118C2.60085 10.4907 2.67482 10.557 2.75966 10.6067C2.8445 10.6565 2.93847 10.6886 3.036 10.7013C3.13352 10.714 3.2326 10.7069 3.32734 10.6805C3.42208 10.6542 3.51054 10.609 3.58747 10.5477C3.6644 10.4865 3.72822 10.4103 3.77514 10.3239C3.82206 10.2375 3.85111 10.1425 3.86058 10.0446C4.32939 6.44548 7.38998 3.66662 11.1237 3.66662C13.1528 3.66662 14.9742 4.49422 16.3 5.82365L14.7904 7.33328L19.1904 8.06662L18.4571 3.66662L17.3356 4.7881C15.7442 3.19548 13.5505 2.19995 11.1237 2.19995ZM19.1259 11.3065C18.9443 11.3039 18.7681 11.3688 18.6315 11.4886C18.495 11.6085 18.4078 11.7748 18.3869 11.9553C17.9181 15.5544 14.8575 18.3333 11.1237 18.3333C8.90753 18.3333 6.94282 17.3435 5.59795 15.7924L6.72373 14.6666L2.32373 13.9333L3.05706 18.3333L4.55954 16.8308C6.17026 18.6433 8.51018 19.8 11.1237 19.8C15.5872 19.8 19.2784 16.4608 19.8407 12.1444C19.8555 12.0412 19.8482 11.9361 19.8193 11.836C19.7903 11.7359 19.7404 11.6431 19.6727 11.5638C19.6051 11.4845 19.5214 11.4206 19.4271 11.3762C19.3328 11.3318 19.2301 11.3081 19.1259 11.3065Z"/></svg>