<svg width="201" height="129" viewBox="0 0 201 129" fill="none" xmlns="http://www.w3.org/2000/svg">
<g clip-path="url(#clip0_6204_18907)">
<path d="M21.7174 110.767L23.229 126.308L5.31991 128.054L0.503906 78.5901L35.5294 75.1797L37.1055 91.3513L19.9891 93.0196L20.2795 96.0152L37.3959 94.3469L38.8337 109.099L21.7174 110.767Z" fill="white"/>
<path d="M64.9237 70.1185C50.0656 71.5656 39.1938 84.7831 40.641 99.6413C42.0881 114.499 55.3056 125.371 70.1637 123.924C85.0219 122.477 95.8936 109.259 94.4465 94.4013C92.9994 79.5431 79.7819 68.6714 64.9237 70.1185ZM68.2419 104.148C64.3062 104.531 60.8036 101.651 60.4211 97.7149C60.0386 93.7791 62.919 90.2766 66.8548 89.8941C70.7905 89.5115 74.2931 92.3919 74.6756 96.3277C75.0581 100.263 72.1777 103.766 68.2419 104.148Z" fill="white"/>
<path d="M120.549 64.7044C105.691 66.1515 94.8188 79.369 96.266 94.2272C97.7131 109.085 110.931 119.957 125.789 118.51C140.647 117.063 151.519 103.845 150.072 88.9872C148.624 74.129 135.407 63.2573 120.549 64.7044ZM123.862 98.7344C119.927 99.117 116.424 96.2366 116.042 92.3008C115.659 88.3651 118.539 84.8625 122.475 84.48C126.411 84.0975 129.913 86.9779 130.296 90.9136C130.678 94.8494 127.798 98.3519 123.862 98.7344Z" fill="white"/>
<path d="M172.079 61.8751L149.75 64.0504L154.566 113.515L176.895 111.339C191.195 109.948 201.772 98.3615 200.376 84.061C198.984 69.7604 186.375 60.4833 172.074 61.8751H172.079ZM176.263 92.4118L171.484 92.8772L170.327 80.987L175.107 80.5215C178.388 80.2035 181.31 82.6046 181.632 85.886C181.95 89.1673 179.549 92.0892 176.268 92.4118H176.263Z" fill="white"/>
<path d="M89.1009 19.6367L104.314 66.9487L87.1837 72.456L71.9707 25.144L89.1009 19.6367Z" fill="white"/>
<path d="M62.2438 64.0733L67.0229 78.9361L49.8927 84.4434L34.6797 37.1314L68.1797 26.3564L73.1524 41.823L56.778 47.086L57.6997 49.9525L74.0741 44.6895L78.6136 58.8011L62.2392 64.0641L62.2438 64.0733Z" fill="white"/>
<path d="M137.242 34.8227L145.238 7.01431L120.845 0L115.904 17.1901L99.083 3.29055L82.916 22.8587L108.259 43.7957L101.48 67.3825L125.873 74.3968L129.601 61.4328L136.966 67.5162L153.133 47.948L137.252 34.8227H137.242ZM134.827 56.2758C134.781 56.2343 134.726 56.1882 134.68 56.1467L122.661 44.7911L118.753 62.2485C118.356 64.0183 116.605 65.1289 114.835 64.7326C113.066 64.3363 111.955 62.585 112.351 60.8153C112.36 60.7692 112.379 60.7093 112.388 60.6632L117.965 40.3576L111.563 34.3111C111.54 34.2881 111.517 34.265 111.494 34.242C108.554 35.9748 104.922 35.855 102.452 33.6936C102.438 33.6797 102.42 33.6659 102.406 33.6521C102.406 33.6521 102.401 33.6475 102.397 33.6429C102.189 33.4585 102.023 33.288 101.89 33.1221L92.5065 23.3518C91.9535 22.7758 91.9719 21.8587 92.548 21.301C93.0734 20.7987 93.8753 20.7664 94.4329 21.195L104.466 30.1173C104.954 30.4445 105.627 30.3846 106.047 29.9468C106.443 29.532 106.498 28.9144 106.213 28.4444C106.213 28.4444 106.217 28.4444 106.222 28.4398L96.4561 18.9414C95.8846 18.3838 95.8708 17.4666 96.4285 16.8952C96.9538 16.3514 97.8111 16.3145 98.3871 16.7892L108.964 25.5041C109.416 25.6746 109.941 25.5778 110.296 25.2091C110.77 24.716 110.757 23.9325 110.259 23.4578L100.406 14.5356C99.9172 14.0286 99.8573 13.2267 100.3 12.6506C100.788 12.0147 101.696 11.8948 102.332 12.3833L113.075 20.6374C113.255 20.7526 113.443 20.9001 113.646 21.0844C113.646 21.0844 113.651 21.089 113.655 21.0936C113.674 21.1121 113.692 21.1305 113.711 21.1489C116.126 23.3657 116.637 26.9604 115.241 30.0666C115.268 30.085 115.292 30.1035 115.319 30.1265L119.748 33.8825C125.454 10.609 125.274 9.18958 125.624 8.4522C126.09 7.47056 126.735 7.53508 127.232 7.65952C131.657 8.76097 133.473 16.7523 131.293 25.5087C129.919 31.0298 127.279 35.5324 124.407 37.8321L139.565 50.6947C141.104 52.0036 141.293 54.3125 139.989 55.8518C138.68 57.3911 136.371 57.58 134.832 56.2758H134.827Z" fill="white"/>
</g>
<defs>
<clipPath id="clip0_6204_18907">
<rect width="200" height="128.05" fill="white" transform="translate(0.5 -0.000976562)"/>
</clipPath>
</defs>
</svg>
