<svg xmlns="http://www.w3.org/2000/svg" xmlns:xlink="http://www.w3.org/1999/xlink"><symbol viewBox="-1 -1 92 92" id="adding_herbs" xmlns="http://www.w3.org/2000/svg"><path d="M69 12c-12 0-24 6-24 21 0 2.92.368 5.287 1.037 7.225a53.103 53.103 0 0 0-1.81 4.172 54.958 54.958 0 0 0-3.557-4.975c-.575-.713-1.247-1.436-1.875-2.156.117-.608.205-1.211.205-1.77C39 22.998 28.998 18 18.996 18H9v7.5C9 40.5 18.996 48 26.496 48c1.512 0 2.83-.258 4.055-.621-2.052-3.006-5.529-7.46-10.383-11.397a2.999 2.999 0 0 1-.445-4.218c.932-1.15 2.518-1.379 3.767-.68.444.342.913.65 1.348 1.002 4.334 3.5 8.205 7.433 11.162 11.104 1.971 2.446 3.536 4.784 4.565 6.732.32.607.479 1.086.685 1.605C34.792 53.2 30 59.02 30 66c0 8.283 6.717 15 15 15 8.283 0 15-6.717 15-15 0-7.111-4.965-13.035-11.607-14.578.57-2.548 1.89-6.313 3.972-10.348 2.76-4.17 6.883-10.43 10.47-14.033a3 3 0 1 1 4.255 4.23c-4.962 4.983-8.44 10.478-10.57 16.541 1.1.127 2.259.188 3.48.188 9 0 21-9 21-27v-9H69ZM45 57c1.656 0 3 1.344 3 3v3h3a3.001 3.001 0 0 1 0 6h-3v3a3.001 3.001 0 0 1-6 0v-3h-3a3.001 3.001 0 0 1 0-6h3v-3c0-1.656 1.344-3 3-3Z"/></symbol><symbol viewBox="-1 -1 92 92" id="adding_sauce" xmlns="http://www.w3.org/2000/svg"><path d="M79.272 21c-4.835 0-7.949 3.416-9.229 6.27-.049.109-.072.207-.117.316-1.579.696-10.095 4.026-25.172 1.518C39.59 28.242 17.382 24 11.988 24 4.482 24 0 25.848 0 30c0 1.629 1.336 3 2.965 3C18.817 33 9.25 60 38.97 60h8.988c10.013 0 16.781-3.194 21.035-8.584a3 3 0 0 0 4.653 2.092s3.957-2.593 7.939-6.451C85.567 43.199 90 38.067 90 31.78c0-3.208-1.228-6.056-3.252-7.95C84.724 21.934 82.027 21 79.271 21Zm0 6c1.42 0 2.583.46 3.38 1.207.797.746 1.348 1.79 1.348 3.574 0 3.086-3.067 7.56-6.586 10.969-2.79 2.703-5.104 4.356-6.146 5.08 2.337-4.482 3.463-9.984 3.632-16.154.131-.59.31-1.266.616-1.945C76.254 28.084 76.954 27 79.27 27ZM30 66a3 3 0 1 0 0 6h30a3 3 0 1 0 0-6H30Z"/></symbol><symbol viewBox="-1 -1 34 34" id="arrow-left-circled" xmlns="http://www.w3.org/2000/svg"><path d="M16 3.2C8.931 3.2 3.2 8.93 3.2 16c0 7.069 5.731 12.8 12.8 12.8 7.069 0 12.8-5.731 12.8-12.8C28.8 8.931 23.07 3.2 16 3.2Zm0 2.133c5.891 0 10.667 4.776 10.667 10.667S21.89 26.667 16 26.667 5.334 21.89 5.334 16 10.109 5.333 16 5.333Zm-1.066 5.334c-.273 0-.547.104-.755.312l-4.266 4.267a1.066 1.066 0 0 0 0 1.508l4.266 4.267a1.065 1.065 0 1 0 1.509-1.509l-2.446-2.445h8.091a1.066 1.066 0 1 0 0-2.134h-8.091l2.446-2.445a1.066 1.066 0 0 0-.755-1.821Z"/></symbol><symbol viewBox="-1 -1 52 52" id="arrow-left-circled-solid" xmlns="http://www.w3.org/2000/svg"><path d="M25 45c11.045 0 20-8.955 20-20S36.045 5 25 5 5 13.955 5 25s8.955 20 20 20Zm-9.512-21.178 6.667-6.667a1.662 1.662 0 0 1 2.357 0 1.665 1.665 0 0 1 0 2.357l-3.822 3.821h12.643a1.666 1.666 0 1 1 0 3.334H20.69l3.822 3.821a1.665 1.665 0 0 1 0 2.357 1.665 1.665 0 0 1-2.357 0l-6.667-6.667a1.665 1.665 0 0 1 0-2.356Z"/></symbol><symbol viewBox="-1 -1 52 52" id="arrow-right-circled-solid" xmlns="http://www.w3.org/2000/svg"><path d="M25 5C13.955 5 5 13.955 5 25s8.955 20 20 20 20-8.955 20-20S36.045 5 25 5Zm9.512 21.178-6.667 6.667a1.662 1.662 0 0 1-2.357 0 1.665 1.665 0 0 1 0-2.357l3.822-3.821H16.667a1.666 1.666 0 1 1 0-3.334H29.31l-3.822-3.821a1.665 1.665 0 0 1 0-2.357 1.665 1.665 0 0 1 2.357 0l6.667 6.667a1.665 1.665 0 0 1 0 2.356Z"/></symbol><symbol viewBox="-1 -1 34 34" id="arrow-up-bold" xmlns="http://www.w3.org/2000/svg"><path d="M16.038 2.095c-.273 0-.546.106-.755.314L7.742 9.951a1.067 1.067 0 0 0 .754 1.82h4.341v16c0 1.18.955 2.134 2.134 2.134h2.133a2.133 2.133 0 0 0 2.134-2.133v-16h4.341a1.066 1.066 0 0 0 .754-1.821l-7.541-7.542a1.065 1.065 0 0 0-.755-.314Z"/></symbol><symbol viewBox="-1 -1 34 34" id="back-arrow" xmlns="http://www.w3.org/2000/svg"><path d="M16 3.2C8.931 3.2 3.2 8.93 3.2 16c0 7.069 5.731 12.8 12.8 12.8 7.069 0 12.8-5.731 12.8-12.8C28.8 8.931 23.07 3.2 16 3.2Zm0 2.133c5.891 0 10.667 4.776 10.667 10.667S21.89 26.667 16 26.667 5.334 21.89 5.334 16 10.109 5.333 16 5.333Zm-1.066 5.334c-.273 0-.547.104-.755.312l-4.266 4.267a1.066 1.066 0 0 0 0 1.508l4.266 4.267a1.065 1.065 0 1 0 1.509-1.509l-2.446-2.445h8.091a1.066 1.066 0 1 0 0-2.134h-8.091l2.446-2.445a1.066 1.066 0 0 0-.755-1.821Z"/></symbol><symbol viewBox="-1 -1 28 29" id="beach" xmlns="http://www.w3.org/2000/svg"><path d="M8.981 4.56a4.8 4.8 0 0 0-4.363 5.2c.036.414.13.808.261 1.181a4.797 4.797 0 0 1 4.311-3.99 4.757 4.757 0 0 1 2.97.725 4.783 4.783 0 0 0-5.656 4.123 4.831 4.831 0 0 0 .615 2.998c.323.555 1.206.293 1.125-.345a4.986 4.986 0 0 1 .022-1.391 4.77 4.77 0 0 1 3.145-3.748 4.964 4.964 0 0 1 1.144-.243c.082 7.412-7.828 11.12-7.828 11.12l.14 1.594A1.6 1.6 0 0 0 6.6 23.238l14.345-1.255A1.6 1.6 0 0 0 22.4 20.25l-.14-1.594s-.727.867-1.524.937c-.797.07-1.664-.658-1.664-.658s-.727.867-1.524.936c-.797.07-1.663-.657-1.663-.657s-.728.867-1.525.936c-.797.07-1.663-.657-1.663-.657l-1.523.133s3.647-3.026 3.011-10.622c.14.01.277.01.419.033a4.764 4.764 0 0 1 3.725 3.128c.16.463.245.924.268 1.374.031.643.948.748 1.17.143.34-.926.4-1.98.083-3.05-.512-1.73-2.028-3.036-3.802-3.32a4.778 4.778 0 0 1 1.182-.262 4.797 4.797 0 0 1 4.938 3.182c.065-.391.089-.795.052-1.21a4.8 4.8 0 0 0-5.2-4.363 4.781 4.781 0 0 0-3.564 2.12A4.796 4.796 0 0 0 8.98 4.56Z"/></symbol><symbol viewBox="-1 -1 92 92" id="boiling" xmlns="http://www.w3.org/2000/svg"><path d="M39 12a3 3 0 0 0-3.041 3H12a3 3 0 1 0 0 6h66a3 3 0 1 0 0-6H54.041A3.001 3.001 0 0 0 51 12H39ZM12 27v9H6.2a3.013 3.013 0 0 0-.2-.012 3 3 0 0 0-.885 5.877L12 43.986V72c0 3.315 2.685 6 6 6h54c3.315 0 6-2.685 6-6V43.986l6.885-2.12A3 3 0 0 0 83.684 36H78v-9H12Z"/></symbol><symbol viewBox="-1 -1 92 92" id="browning" xmlns="http://www.w3.org/2000/svg"><g clip-path="url(#aja)"><path d="M35.953 14.959A3 3 0 0 0 33 18v18a3 3 0 1 0 6 0V18a3 3 0 0 0-3.047-3.041Zm-12 9A3 3 0 0 0 21 27v9a3 3 0 1 0 6 0v-9a3 3 0 0 0-3.047-3.041Zm24 0A3 3 0 0 0 45 27v9a3 3 0 1 0 6 0v-9a3 3 0 0 0-3.047-3.041ZM77.484 39c-2.386 0-4.676.95-6.363 2.637L67.758 45H3a3 3 0 0 0-2.848 3.95l3.95 11.847A12.026 12.026 0 0 0 15.486 69h41.028c5.152 0 9.75-3.312 11.379-8.203l3.732-11.18 3.738-3.738A3.002 3.002 0 0 1 77.484 45H87a3 3 0 1 0 0-6h-9.516Z"/></g><defs><clipPath id="aja"><path d="M0 0h90v90H0z"/></clipPath></defs></symbol><symbol viewBox="-1 -1 26 26" id="check" xmlns="http://www.w3.org/2000/svg"><g clip-path="url(#ama)"><path d="M21.585 4.791a.8.8 0 0 0-.55.243L8.8 17.268l-5.034-5.034a.801.801 0 1 0-1.131 1.13l5.6 5.6a.8.8 0 0 0 1.13 0l12.8-12.8a.8.8 0 0 0-.58-1.373Z"/></g><defs><clipPath id="ama"><path d="M0 0h24v24H0z"/></clipPath></defs></symbol><symbol viewBox="-1 -1 27 27" id="check-solid" xmlns="http://www.w3.org/2000/svg"><g clip-path="url(#aka)"><path d="M12.5 2.424c-5.301 0-9.6 4.299-9.6 9.6 0 5.302 4.299 9.6 9.6 9.6 5.302 0 9.6-4.298 9.6-9.6 0-5.301-4.298-9.6-9.6-9.6Zm5.366 7.766-6.048 6.048a.8.8 0 0 1-1.131 0l-2.763-2.762a.8.8 0 1 1 1.132-1.132l2.196 2.197 5.483-5.482a.8.8 0 1 1 1.131 1.13Z"/></g><defs><clipPath id="aka"><path transform="translate(.5 .025)" d="M0 0h24v24H0z"/></clipPath></defs></symbol><symbol viewBox="-1 -1 53 52" id="check-sticker-solid" xmlns="http://www.w3.org/2000/svg"><path d="m46.005 22.947-1.515-.909c-.645-.386-1.082-1.025-1.279-1.75a.355.355 0 0 0-.011-.04c-.202-.731-.142-1.511.226-2.176l.859-1.545c.877-1.58-.247-3.525-2.053-3.555l-1.784-.03c-.755-.014-1.455-.349-1.988-.882l-.017-.017c-.535-.533-.87-1.233-.881-1.988l-.03-1.783c-.032-1.81-1.977-2.934-3.557-2.055l-1.545.858c-.663.368-1.444.428-2.177.227a.355.355 0 0 1-.04-.012c-.725-.198-1.363-.633-1.75-1.278l-.908-1.515c-.93-1.55-3.175-1.55-4.105 0l-.905 1.508c-.39.65-1.034 1.088-1.764 1.288l-.023.007c-.738.203-1.523.143-2.193-.228l-1.54-.855c-1.58-.879-3.525.245-3.555 2.051l-.03 1.784c-.013.755-.348 1.455-.882 1.988l-.017.017c-.533.535-1.233.87-1.988.881l-1.783.03C6.96 13 5.838 14.945 6.716 16.525l.859 1.545c.368.665.428 1.443.226 2.177a.355.355 0 0 1-.011.04c-.199.725-.634 1.363-1.279 1.75l-1.515.908c-1.55.93-1.55 3.177 0 4.105l1.515.91c.645.387 1.082 1.025 1.279 1.75a.368.368 0 0 0 .011.04c.202.733.142 1.512-.226 2.177l-.859 1.548C5.84 35.055 6.963 37 8.77 37.03l1.783.03c.755.013 1.455.348 1.988.882l.017.016c.535.534.87 1.234.882 1.989l.03 1.781c.03 1.807 1.975 2.93 3.555 2.054l1.545-.859c.663-.368 1.443-.428 2.177-.226.013.003.026.006.04.011.725.199 1.363.634 1.75 1.279l.908 1.515c.93 1.55 3.175 1.55 4.105 0l.908-1.515c.387-.645 1.025-1.082 1.75-1.279a.361.361 0 0 0 .04-.011c.732-.202 1.512-.142 2.177.226l1.545.859c1.58.876 3.525-.247 3.555-2.054l.03-1.781c.013-.755.348-1.455.882-1.989l.016-.016c.533-.535 1.233-.87 1.988-.882l1.784-.03c1.806-.03 2.93-1.975 2.053-3.555l-.858-1.545c-.369-.665-.428-1.443-.227-2.177l.012-.04c.198-.725.633-1.363 1.278-1.75l1.515-.91c1.555-.93 1.555-3.176.007-4.106ZM35.01 21.178 24.078 32.112a1.665 1.665 0 0 1-2.357 0l-5.755-5.755a1.665 1.665 0 0 1 0-2.357 1.665 1.665 0 0 1 2.357 0l4.577 4.577 9.755-9.755a1.665 1.665 0 0 1 2.356 0 1.665 1.665 0 0 1 0 2.356Z"/></symbol><symbol viewBox="-1 -1 79 79" id="chef-knife" xmlns="http://www.w3.org/2000/svg"><path d="M67.703 10.531c-.078.001-.156.01-.232.025-2.847.117-13.884 2.893-22.55 11.559C34.896 32.14 11.296 53.746 10.167 54.878a6.641 6.641 0 0 0 0 9.393 6.641 6.641 0 0 0 9.394 0c7.237-7.237 8.962-8.924 15.004-17.348 2.935-4.09 7.039 4.851 9.22 8.464.023.042.048.084.075.123l.005.01a1.265 1.265 0 0 0 1.058.574c.301-.002.592-.11.82-.307.033-.026.065-.054.094-.084.17-.153 7.972-7.23 10.476-9.734C66.407 35.874 68.95 27.03 68.964 11.925a1.266 1.266 0 0 0-1.26-1.394Z"/></symbol><symbol viewBox="-1 -1 24 25" id="chevron-down" xmlns="http://www.w3.org/2000/svg"><path d="M2.2 9.769V8.302a.735.735 0 0 1 1.198-.567L11 13.955l7.602-6.22a.734.734 0 0 1 1.198.567V9.77c0 .22-.099.428-.27.567l-8.066 6.6a.735.735 0 0 1-.929 0l-8.067-6.6A.736.736 0 0 1 2.2 9.77Z"/></symbol><symbol viewBox="-1 -1 79 79" id="chili-pepper" xmlns="http://www.w3.org/2000/svg"><path d="M61.515 5.444a2.531 2.531 0 0 0-1.74.767s-.957.988-1.74 2.555c-.552 1.103-1.072 2.59-1.34 4.39-6.85.478-10.318 5.35-10.318 12.563-.92 14.395-4.804 29.393-23.434 37.222-1.121.471-1.879 1.541-1.879 2.754 0 1.673 1.38 3.062 3.05 2.981 24.063-1.172 45.04-15.114 45.04-43.575 0-5.625-2.47-9.999-7.407-11.485.192-1.09.504-1.961.816-2.585.482-.964.79-1.241.79-1.241a2.532 2.532 0 0 0-1.838-4.346ZM43.845 8c-2.436 0-4.526.986-5.843 2.358-1.318 1.373-1.972 2.936-2.531 4.242-.56 1.306-1.04 2.378-1.454 2.897-.413.52-.47.628-1.335.628-1.864 0-4.515-1.045-6.565-2.205a28.376 28.376 0 0 1-3.466-2.299 2.531 2.531 0 0 0-4.118 1.973c0 7.852 2.145 12.637 4.182 15.904 1.02 1.634 1.956 2.893 2.547 3.95.59 1.058.865 1.837.865 2.927 0 1.404-.378 2.82-.994 3.688-.616.868-1.287 1.375-2.951 1.375-1.717 0-2.368-.665-2.947-1.474a4.914 4.914 0 0 1-.756-1.582 2.532 2.532 0 0 0-4.36-1.166s-1.58 1.797-2.972 5.008c-1.393 3.21-2.739 8.003-2.739 14.401a2.532 2.532 0 1 0 5.063 0c0-5.691 1.184-9.758 2.323-12.384.15-.345.13-.19.272-.48 1.36 1.414 3.317 2.74 6.116 2.74 3.079 0 5.642-1.481 7.08-3.506 1.436-2.025 1.927-4.407 1.927-6.62 0-2.095-.674-3.9-1.508-5.394-.833-1.492-1.795-2.752-2.674-4.162-1.219-1.954-2.166-4.685-2.769-8.202 2.345 1.278 5.234 2.57 8.444 2.57 2.24 0 4.198-1.157 5.295-2.536 1.098-1.378 1.621-2.838 2.146-4.063.524-1.226 1.028-2.194 1.532-2.72.505-.525.9-.805 2.19-.805a2.532 2.532 0 1 0 0-5.063Z"/></symbol><symbol viewBox="-1 -1 52 52" id="circled-right" xmlns="http://www.w3.org/2000/svg"><path d="M25 5C13.955 5 5 13.955 5 25s8.955 20 20 20 20-8.955 20-20S36.045 5 25 5Zm9.512 21.178-6.667 6.667a1.662 1.662 0 0 1-2.357 0 1.665 1.665 0 0 1 0-2.357l3.822-3.821H16.667a1.666 1.666 0 1 1 0-3.334H29.31l-3.822-3.821a1.665 1.665 0 0 1 0-2.357 1.665 1.665 0 0 1 2.357 0l6.667 6.667a1.665 1.665 0 0 1 0 2.356Z"/></symbol><symbol viewBox="-1 -1 26 26" id="close" xmlns="http://www.w3.org/2000/svg"><path d="M6.074 3.852c-.19 0-.38.072-.524.217L4.07 5.55a.74.74 0 0 0 0 1.048L9.47 12l-5.402 5.402a.74.74 0 0 0 0 1.048L5.55 19.93a.74.74 0 0 0 1.048 0L12 14.53l5.402 5.402a.74.74 0 0 0 1.048 0l1.481-1.481a.74.74 0 0 0 0-1.048L14.53 12l5.402-5.402a.74.74 0 0 0 0-1.048L18.45 4.07a.74.74 0 0 0-1.048 0L12 9.47 6.598 4.069a.738.738 0 0 0-.524-.217Z"/></symbol><symbol viewBox="-1 -1 27 27" id="close-solid" xmlns="http://www.w3.org/2000/svg"><g clip-path="url(#ara)"><path d="M12.5 2.425c-5.301 0-9.6 4.299-9.6 9.6 0 5.302 4.299 9.6 9.6 9.6 5.302 0 9.6-4.298 9.6-9.6 0-5.301-4.298-9.6-9.6-9.6Zm3.766 12.235a.8.8 0 1 1-1.131 1.13L12.5 13.158 9.866 15.79a.798.798 0 0 1-1.131 0 .8.8 0 0 1 0-1.131l2.634-2.635-2.634-2.634A.8.8 0 1 1 9.866 8.26l2.634 2.634 2.635-2.634a.8.8 0 1 1 1.131 1.13l-2.634 2.635 2.634 2.635Z"/></g><defs><clipPath id="ara"><path transform="translate(.5 .025)" d="M0 0h24v24H0z"/></clipPath></defs></symbol><symbol viewBox="-1 -1 92 92" id="combining" xmlns="http://www.w3.org/2000/svg"><path d="M73.5 12a7.5 7.5 0 0 0-7.5 7.5c.002.353.03.706.082 1.055L53.637 33h12.726l6.082-6.082c.35.052.702.08 1.055.082a7.5 7.5 0 0 0 0-15ZM9 39a3 3 0 1 0 0 6h.152c1.001 12.1 7.975 22.48 17.977 28.219A5.998 5.998 0 0 0 33 78h24a5.998 5.998 0 0 0 5.871-4.781C72.873 67.48 79.847 57.099 80.848 45H81a3 3 0 1 0 0-6H9Z"/></symbol><symbol viewBox="-1 -1 34 34" id="confetti" xmlns="http://www.w3.org/2000/svg"><path d="m19.734 3.2-1.6 1.6 1.6 1.6 1.6-1.6-1.6-1.6ZM11.2 4.267a1.6 1.6 0 0 0 0 3.2h1.613c.585 0 1.06.465 1.067 1.05.02 1.765-.013 5.35-.013 5.35S16 10.667 16 7.467c0-1.635-1.066-3.2-3.2-3.2h-1.6Zm14.4 0A2.15 2.15 0 0 0 23.468 6.4v2.133h-1.066a2.15 2.15 0 0 0-2.134 2.134v1.066h-.079a4.03 4.03 0 0 0-2.419.806l-.077.059-2.475 2.677 1.567 1.45 2.302-2.492a1.89 1.89 0 0 1 1.102-.366h.08a2.15 2.15 0 0 0 2.133-2.134v-1.066h1.066a2.15 2.15 0 0 0 2.134-2.134V6.4h3.2V4.267h-3.2ZM5.867 5.333l-1.6 1.6 1.6 1.6 1.6-1.6-1.6-1.6Zm-2.133 6.4-1.6 1.6 1.6 1.6 1.6-1.6-1.6-1.6Zm23.467 0-1.6 1.6 1.6 1.6 1.6-1.6-1.6-1.6ZM8.523 12.79a1.067 1.067 0 0 0-.743 1.832l.323.323L3.31 26.923c-.444 1.11.657 2.21 1.767 1.767l11.979-4.792.323.323a1.066 1.066 0 1 0 1.508-1.509l-4.773-4.773-4.827-4.826a1.066 1.066 0 0 0-.765-.323ZM24.533 16c-3.2 0-6.4 2.133-6.4 2.133s3.585-.032 5.35-.012c.585.006 1.05.482 1.05 1.067V20.8a1.6 1.6 0 0 0 3.2 0v-1.6c0-2.133-1.565-3.2-3.2-3.2Zm-1.6 7.467-1.6 1.6 1.6 1.6 1.6-1.6-1.6-1.6Z"/></symbol><symbol viewBox="-1 -1 92 92" id="cooking" xmlns="http://www.w3.org/2000/svg"><path d="M45 9c-6.232 0-11.538 3.31-14.725 8.162a3 3 0 0 0-1.002 1.084c-.085.154-.135.324-.216.48C27.889 18.42 26.766 18 25.5 18 16.423 18 9 25.423 9 34.5c0 6.343 3.725 11.681 9 14.426v16.57a3.003 3.003 0 0 0 0 .979V78a3 3 0 0 0 3 3h48a3 3 0 0 0 3-3V66.504a3.003 3.003 0 0 0 0-.979V49.19c.37-.207.691-.49.943-.832C77.703 45.487 81 40.45 81 34.5 81 25.423 73.577 18 64.5 18c-1.35 0-2.533.483-3.785.791C57.716 13.053 51.913 9 45 9Zm0 6c5.276 0 9.656 3.396 11.285 8.11a3 3 0 0 0 4.031 1.769c1.297-.564 2.7-.879 4.184-.879C70.333 24 75 28.667 75 34.5c0 4.584-2.925 8.397-7.002 9.844-.133.05-.262.108-.387.175-1.36.424-2.809.58-4.271.416a3.002 3.002 0 0 0-.674 5.965c1.122.127 2.235.096 3.334-.005V63h-9v-3a3.001 3.001 0 1 0-6 0v3H39v-9a3 3 0 1 0-6 0v9h-9V47.174a3 3 0 0 0-1.998-2.83C17.925 42.897 15 39.084 15 34.5 15 28.667 19.667 24 25.5 24c.593 0 1.163.085 1.729.182a17.876 17.876 0 0 0 .158 6.545 3 3 0 0 0 4.635 1.85 3.001 3.001 0 0 0 1.236-3.098c-.43-2.025-.29-4.093.304-6.018.059-.114.11-.231.153-.352C35.344 18.396 39.725 15 45 15ZM24 69h11.496c.324.053.655.053.979 0h17.021c.324.053.655.053.979 0H66v6H24v-6Z"/></symbol><symbol viewBox="-1 -1 92 92" id="creative_cooking" xmlns="http://www.w3.org/2000/svg"><path d="M45 9C25.119 9 9 25.119 9 45s16.119 36 36 36h3a9 9 0 0 0 9-9v-9c0-3.315 2.685-6 6-6h12c3.315 0 6-2.685 6-6v-6C81 25.119 64.881 9 45 9Zm0 6c3.315 0 6 2.685 6 6s-2.685 6-6 6-6-2.685-6-6 2.685-6 6-6ZM21 51c-3.315 0-6-2.685-6-6s2.685-6 6-6 6 2.685 6 6-2.685 6-6 6Zm22.5 24a7.499 7.499 0 0 1-7.5-7.5c0-4.143 3.357-7.5 7.5-7.5s7.5 3.357 7.5 7.5-3.357 7.5-7.5 7.5ZM69 51c-3.315 0-6-2.685-6-6s2.685-6 6-6 6 2.685 6 6-2.685 6-6 6Zm-2.787-18.729a5.999 5.999 0 1 1-8.484-8.484 5.999 5.999 0 1 1 8.484 8.484Zm-42.426 0a5.999 5.999 0 1 1 8.484-8.484 5.999 5.999 0 1 1-8.484 8.484Z"/></symbol><symbol viewBox="-1 -1 34 34" id="cutlery" xmlns="http://www.w3.org/2000/svg"><path d="M6.4 3.2c-.59 0-1.067.477-1.067 1.067v6.4c0 4.968 4.045 4.265 3.81 7.456-.233 3.19-.61 6.41-.61 8.544a2.133 2.133 0 1 0 4.26-.15c-.014-2.133-.375-5.27-.603-8.394-.234-3.19 3.81-2.488 3.81-7.456v-6.4a1.066 1.066 0 1 0-2.133 0V9.6a1.067 1.067 0 0 1-2.134 0V4.267a1.066 1.066 0 1 0-2.133 0V9.6a1.067 1.067 0 0 1-2.133 0V4.267c0-.59-.477-1.067-1.067-1.067Zm14.934 0a1.067 1.067 0 0 0-1.067 1.067v22.4a2.133 2.133 0 1 0 4.252-.23c-.042-1.384-.47-3.41-.833-5.35-.41-2.185-.32-2.954.848-2.954A2.14 2.14 0 0 0 26.666 16V8.533a5.33 5.33 0 0 0-5.227-5.327 1.066 1.066 0 0 0-.107-.006Z"/></symbol><symbol viewBox="-1 -1 92 93" id="draining" xmlns="http://www.w3.org/2000/svg"><path d="M9 21.978a3.002 3.002 0 0 0-1.161 5.784A3 3 0 0 0 9 27.978h.111c.163 2.856.532 5.544 1.12 8.051-.193-.083-.473-.151-.64-.234-1.141-.571-1.47-.938-1.47-.938A3 3 0 1 0 3.88 39.1s1.171 1.134 3.03 2.063c1.38.69 3.25 1.355 5.554 1.652 4.421 10.37 12.47 17.13 20.537 21.164h9a3.001 3.001 0 0 1 0 6H30a3.001 3.001 0 1 0 0 6h33a3 3 0 1 0 0-6h-1.5l-3.334-6.662c7.669-4.09 15.164-10.635 19.371-20.502 2.304-.297 4.174-.962 5.555-1.652 1.858-.929 3.03-2.063 3.03-2.063a3 3 0 1 0-4.243-4.242s-.329.367-1.47.938c-.167.083-.447.151-.64.234.588-2.507.957-5.195 1.12-8.05H81a3 3 0 1 0 0-6H9Zm12 12a3.001 3.001 0 0 1 0 6 3.001 3.001 0 0 1 0-6Zm12 0a3.001 3.001 0 0 1 0 6 3.001 3.001 0 0 1 0-6Zm12 0a3.001 3.001 0 0 1 0 6 3.001 3.001 0 0 1 0-6Zm12 0a3.001 3.001 0 0 1 0 6 3.001 3.001 0 0 1 0-6Zm12 0a3.001 3.001 0 0 1 0 6 3.001 3.001 0 0 1 0-6Zm-42 9a3.001 3.001 0 0 1 0 6 3.001 3.001 0 0 1 0-6Zm12 0a3.001 3.001 0 0 1 0 6 3.001 3.001 0 0 1 0-6Zm12 0a3.001 3.001 0 0 1 0 6 3.001 3.001 0 0 1 0-6Zm12 0a3.001 3.001 0 0 1 0 6 3.001 3.001 0 0 1 0-6Zm-30 9a3.001 3.001 0 0 1 0 6 3.001 3.001 0 0 1 0-6Zm12 0a3.001 3.001 0 0 1 0 6 3.001 3.001 0 0 1 0-6Zm12 0a3.001 3.001 0 0 1 0 6 3.001 3.001 0 0 1 0-6Z"/></symbol><symbol viewBox="-1 -1 70 70" id="flash" xmlns="http://www.w3.org/2000/svg"><path d="M38.624 4.5a2.25 2.25 0 0 0-1.973 1.173L18.765 34.726v.004a2.25 2.25 0 0 0 .268 2.861 2.25 2.25 0 0 0 1.59.659H33l-3.331 22.052a2.25 2.25 0 0 0 3.366 2.374 2.25 2.25 0 0 0 .826-.876h.005l17.824-28.973-.022-.04c.266-.37.457-.797.457-1.287a2.25 2.25 0 0 0-2.25-2.25H37.499l3.274-21.836a2.249 2.249 0 0 0-2.15-2.914Z"/></symbol><symbol viewBox="-1 -1 34 34" id="frying-pan" xmlns="http://www.w3.org/2000/svg"><g clip-path="url(#baa)"><path d="M11.783 5.318a1.067 1.067 0 0 0-1.05 1.082v6.4a1.069 1.069 0 0 0 1.067 1.082 1.066 1.066 0 0 0 1.066-1.082V6.4a1.07 1.07 0 0 0-1.083-1.082Zm-4.267 3.2A1.067 1.067 0 0 0 6.466 9.6v3.2a1.067 1.067 0 1 0 2.134 0V9.6a1.067 1.067 0 0 0-1.084-1.082Zm8.534 0A1.067 1.067 0 0 0 15 9.6v3.2a1.067 1.067 0 1 0 2.133 0V9.6a1.065 1.065 0 0 0-1.083-1.082Zm10.5 5.348c-.849 0-1.663.338-2.263.938L23.091 16H.066a1.068 1.068 0 0 0-1.012 1.404l1.404 4.212a4.276 4.276 0 0 0 4.048 2.917h14.587a4.27 4.27 0 0 0 4.046-2.917l1.327-3.975 1.33-1.329c.2-.2.471-.312.754-.312h3.383a1.067 1.067 0 1 0 0-2.134H26.55Z"/></g><defs><clipPath id="baa"><path d="M0 0h32v32H0z"/></clipPath></defs></symbol><symbol viewBox="-1 -1 92 93" id="garnishing" xmlns="http://www.w3.org/2000/svg"><path d="M47.97 6.95a3 3 0 0 0-2.993 2.835c-.676 4.346-2.437 6.55-5.086 8.356-2.702 1.84-6.474 3.034-10.465 4.365-3.992 1.33-8.252 2.808-11.701 5.918-2.903 2.617-4.954 6.46-5.538 11.554H9c-1.656 0-3 1.344-3 3v6c0 1.657 1.344 3 3 3h72c1.656 0 3-1.343 3-3v-6c0-1.656-1.344-3-3-3h-3.129c-.97-12.443-7.862-20.774-14.59-25.734C56.67 9.37 50.304 7.508 49.178 7.201a3 3 0 0 0-1.207-.252Zm.762 9.304C49.905 18.474 51 21.447 51 24.978c0 1.584-.419 2.47-1.219 3.47s-2.08 2.003-3.58 3.128-3.22 2.371-4.67 4.184c-.918 1.148-1.65 2.59-2.091 4.218H18.2c.462-3.438 1.747-5.481 3.544-7.101 2.27-2.046 5.697-3.382 9.58-4.676 3.884-1.294 8.174-2.537 11.942-5.103 2.302-1.569 4.12-3.95 5.466-6.844Zm6.563.006a38.67 38.67 0 0 1 4.424 2.812c5.7 4.203 11.173 10.648 12.093 20.906H45.886c.107-.156.207-.31.334-.468.8-1 2.08-2.004 3.58-3.13 1.5-1.124 3.22-2.37 4.67-4.183A11.544 11.544 0 0 0 57 24.978c0-3.326-.739-6.235-1.705-8.718ZM12 57.978l4.137 14.473a8.999 8.999 0 0 0 8.654 6.528h40.418a9.002 9.002 0 0 0 8.654-6.528L78 57.98H12Z"/></symbol><symbol viewBox="-1 -1 92 92" id="grating" xmlns="http://www.w3.org/2000/svg"><path d="M74.057 85a3.564 3.564 0 1 0 0-7.127H72.37l-4.435-55.111-.001-.009c-.131-5.976-2.628-10.752-7.255-13.83C56.764 6.32 51.488 5 45 5c-6.489 0-11.764 1.32-15.678 3.924-4.624 3.075-7.121 7.849-7.255 13.82l-4.713 55.129h-1.411a3.564 3.564 0 1 0 0 7.127h58.114ZM45 12.127c8.53 0 13.643 2.471 15.259 7.357H29.74c1.616-4.886 6.729-7.357 15.259-7.357ZM24.507 77.873 28.89 26.61h32.204l4.125 51.262H24.507Z"/><path d="M35.406 31.82a3.564 3.564 0 0 0-3.564 3.563v.274a3.564 3.564 0 1 0 7.127 0v-.274a3.564 3.564 0 0 0-3.563-3.563ZM35.406 54.298a3.564 3.564 0 0 0-3.564 3.564v.548a3.564 3.564 0 1 0 7.127 0v-.548a3.564 3.564 0 0 0-3.563-3.564ZM35.406 42.785a3.564 3.564 0 0 0-3.564 3.563v.549a3.564 3.564 0 1 0 7.127 0v-.549a3.564 3.564 0 0 0-3.563-3.563ZM35.406 65.537a3.564 3.564 0 0 0-3.564 3.564v.274a3.564 3.564 0 1 0 7.127 0v-.274a3.564 3.564 0 0 0-3.563-3.564ZM45 31.82a3.564 3.564 0 0 0-3.564 3.563v.274a3.564 3.564 0 1 0 7.128 0v-.274A3.564 3.564 0 0 0 45 31.82ZM45 42.785a3.564 3.564 0 0 0-3.564 3.563v.549a3.564 3.564 0 1 0 7.128 0v-.549A3.564 3.564 0 0 0 45 42.785ZM45 54.298a3.564 3.564 0 0 0-3.564 3.564v.548a3.564 3.564 0 1 0 7.128 0v-.548A3.564 3.564 0 0 0 45 54.298ZM45 65.537a3.564 3.564 0 0 0-3.564 3.564v.274a3.564 3.564 0 1 0 7.128 0v-.274A3.564 3.564 0 0 0 45 65.537ZM54.594 31.82a3.564 3.564 0 0 0-3.563 3.563v.274a3.564 3.564 0 1 0 7.127 0v-.274a3.564 3.564 0 0 0-3.564-3.563ZM54.594 42.785a3.564 3.564 0 0 0-3.563 3.563v.549a3.564 3.564 0 1 0 7.127 0v-.549a3.564 3.564 0 0 0-3.564-3.563ZM54.594 54.298a3.564 3.564 0 0 0-3.563 3.564v.548a3.564 3.564 0 1 0 7.127 0v-.548a3.564 3.564 0 0 0-3.564-3.564ZM54.594 65.537a3.564 3.564 0 0 0-3.563 3.564v.274a3.564 3.564 0 1 0 7.127 0v-.274a3.564 3.564 0 0 0-3.564-3.564Z"/></symbol><symbol viewBox="-1 -1 35 34" id="hand-raised" xmlns="http://www.w3.org/2000/svg"><path d="M16.949 0c-1.02 0-1.846.827-1.846 1.846V13.54h-1.231V4.308a1.847 1.847 0 0 0-3.692 0v17.569s-3.545-2.293-5.33-3.07a3.869 3.869 0 0 0-1.543-.345c-2.753 0-2.974 2.461-2.974 2.461l4.924 3.692 3.94 4.729A7.385 7.385 0 0 0 14.87 32h8.848a4.923 4.923 0 0 0 4.923-4.923V8a1.847 1.847 0 0 0-3.692 0v5.539h-1.23V4.308a1.847 1.847 0 0 0-3.693 0v9.23h-1.231V1.847C18.795.827 17.968 0 16.949 0Z"/></symbol><symbol viewBox="-1 -1 52 52" id="home" xmlns="http://www.w3.org/2000/svg"><path d="M25 3.333c-.436 0-.854.17-1.165.476l-18.18 14.87a1.748 1.748 0 0 0-.063.048l-.061.052v.003a1.666 1.666 0 0 0 1.136 2.885h1.666V40a3.332 3.332 0 0 0 3.334 3.333h26.666A3.332 3.332 0 0 0 41.667 40V21.667h1.666a1.666 1.666 0 0 0 1.136-2.888l-.026-.02a1.63 1.63 0 0 0-.114-.094l-2.662-2.177V10c0-.92-.747-1.667-1.667-1.667h-1.667c-.92 0-1.666.747-1.666 1.667v2.399L26.13 3.779A1.667 1.667 0 0 0 25 3.333ZM30 25h6.667v13.333H30V25Z"/></symbol><symbol viewBox="-1 -1 34 35" id="ingredient" xmlns="http://www.w3.org/2000/svg"><path d="M0 16.425c0-8.837 7.163-16 16-16s16 7.163 16 16c0 8.836-7.163 16-16 16s-16-7.164-16-16Z" fill-opacity=".3"/><g clip-path="url(#bfa)"><path d="M10.8 6.824a.8.8 0 1 0 0 1.6h1.6a.8.8 0 1 0 0-1.6h-1.6Zm13.802.003c-.882.07-2.095 1.309-4.1 4.263l.89 1.226 1.122-.054c-.145.286-.336.563-.658.694l1.078 1.48c2.28-4.28 3.32-6.837 2.23-7.476a.94.94 0 0 0-.562-.133ZM10.4 10.024v2.4s-2.4.8-2.4 3.2h7.2c0-2.4-2.4-3.2-2.4-3.2v-2.4h-2.4Zm6.6.068a1.13 1.13 0 0 0-.401.157l-2.036 1.296c1.114.752 2.237 2.074 2.237 4.08h5.019l-3.699-5.087a1.13 1.13 0 0 0-1.12-.447Zm6.652.137c-.176.348-.407.695-.877.763-.47.067-.638-.351-.46-.699l1.337-.064ZM7.2 17.224a.8.8 0 1 0 0 1.6h1.6a.8.8 0 0 1 0 1.6H7.281c.376 2.587 2.076 4.458 4.42 5.6h8.6c2.342-1.142 4.042-3.013 4.418-5.6H15.2a.8.8 0 0 1 0-1.6h9.6a.8.8 0 1 0 0-1.6H7.2Z"/></g><defs><clipPath id="bfa"><path transform="translate(4 4.425)" d="M0 0h24v24H0z"/></clipPath></defs></symbol><symbol viewBox="-1 -1 92 93" id="layering" xmlns="http://www.w3.org/2000/svg"><path d="M45 9.978c-.975 0-1.882.257-2.695.668h-.053l-28.377 14.56A2.99 2.99 0 0 0 12 27.978c0 1.248.766 2.319 1.852 2.771v.06l28.423 14.513.024-.012a5.937 5.937 0 0 0 2.701.668c.978 0 1.885-.254 2.701-.668l.024.012 28.423-14.514v-.058A3.006 3.006 0 0 0 78 27.978a2.99 2.99 0 0 0-1.875-2.772l-28.377-14.56h-.053c-.813-.411-1.72-.668-2.695-.668Zm-25.57 30.38-5.555 2.849A2.99 2.99 0 0 0 12 45.977c0 1.248.766 2.319 1.852 2.771v.06l28.423 14.513.024-.012a5.937 5.937 0 0 0 2.701.668c.978 0 1.885-.254 2.701-.668l.024.012 28.423-14.514v-.059A3.006 3.006 0 0 0 78 45.978a2.99 2.99 0 0 0-1.875-2.772L70.57 40.36c-8.715 4.46-20.61 10.53-20.748 10.582a11.74 11.74 0 0 1-9.662-.006c-.132-.048-12.012-6.112-20.73-10.576Zm0 18-5.555 2.849A2.99 2.99 0 0 0 12 63.977c0 1.248.766 2.318 1.852 2.771v.06l28.423 14.513.024-.012a5.937 5.937 0 0 0 2.701.668c.978 0 1.885-.254 2.701-.668l.024.012 28.423-14.514v-.059A3.006 3.006 0 0 0 78 63.978a2.99 2.99 0 0 0-1.875-2.772L70.57 58.36c-8.715 4.46-20.61 10.53-20.748 10.582a11.74 11.74 0 0 1-9.662-.006c-.132-.048-12.012-6.112-20.73-10.576Z"/></symbol><symbol viewBox="-1 -1 27 27" id="lightning-bolt" xmlns="http://www.w3.org/2000/svg"><path d="M10.1 2a.8.8 0 0 0-.788.66L6.928 12.987l.002.001A.8.8 0 0 0 7.7 14h4.4l-1.184 7.841a.805.805 0 0 0 .218.725.8.8 0 0 0 1.272-.192h.002l5.537-10.302-.008-.014a.779.779 0 0 0 .163-.457.8.8 0 0 0-.8-.8h-4.4l2.73-7.672A.8.8 0 0 0 14.9 2h-4.8Z"/></symbol><symbol viewBox="-1 -1 35 28" id="map" xmlns="http://www.w3.org/2000/svg"><path d="M1.564.692c-.68 0-1.23.552-1.23 1.231v19.692c0 .574.4 1.035.932 1.171l7.683 2.219V2.795L2.049.775a1.546 1.546 0 0 0-.485-.082Zm19.692.229L11.41 2.906v22.152l9.846-1.967V.921ZM23.718 1v22.207l6.993 2.021c.124.042.253.08.392.08.679 0 1.23-.552 1.23-1.231V4.385c0-.585-.418-1.01-.961-1.176L23.718 1Z"/></symbol><symbol viewBox="-1 -1 92 92" id="measuring" xmlns="http://www.w3.org/2000/svg"><g clip-path="url(#bja)"><path d="M45 9.023a6 6 0 0 0-5.49 3.592c-5.097 1.142-8.585 3.74-11.649 5.965C23.806 21.524 20.334 24 12 24a3 3 0 1 0 0 6c.614 0 1.164-.055 1.746-.082L3.902 57h6.381L18 35.777 25.717 57h6.38L21.757 28.559c4.09-1.306 7.113-3.292 9.633-5.122 3.01-2.185 5.278-4.005 8.783-4.869A6 6 0 0 0 45 21.023a6 6 0 0 0 4.828-2.455c3.505.864 5.773 2.684 8.783 4.87 2.52 1.829 5.543 3.815 9.633 5.12L57.902 57h6.381L72 35.777 79.717 57h6.38l-9.843-27.082c.582.027 1.132.082 1.746.082a3 3 0 1 0 0-6c-8.335 0-11.806-2.476-15.861-5.42-3.065-2.225-6.554-4.83-11.655-5.97A6 6 0 0 0 45 9.022ZM3 63a3 3 0 0 0-3 3 3 3 0 0 0 .281 1.26l.006.017c.06.128.128.251.205.37C.997 68.746 5.567 78 18 78c12.337 0 16.913-9.087 17.478-10.307a3 3 0 0 0-.357-3.814A3 3 0 0 0 33 63H3Zm54 0a3 3 0 0 0-3 3 3 3 0 0 0 .281 1.26l.006.017c.06.128.128.251.205.37C54.997 68.746 59.567 78 72 78c12.338 0 16.913-9.087 17.478-10.307a3 3 0 0 0-.357-3.814A3 3 0 0 0 87 63H57Z"/></g><defs><clipPath id="bja"><path d="M0 0h90v90H0z"/></clipPath></defs></symbol><symbol viewBox="-1 -1 92 93" id="mixing" xmlns="http://www.w3.org/2000/svg"><path d="M27 6.022c-1.656 0-3 1.344-3 3-6.627 0-12 5.373-12 12v12c0 3.315 2.685 6 6 6h56.49c2.763 0 5.404-1.65 6.24-4.283.444-1.398.304-2.704-.14-3.856l-7.037-15.457C71.537 11.634 67.593 9.022 63 9.022H30c0-1.656-1.344-3-3-3Zm-1.5 9h18c2.484 0 4.5 2.016 4.5 4.5s-2.016 4.5-4.5 4.5h-18a4.502 4.502 0 0 1-4.5-4.5c0-2.484 2.016-4.5 4.5-4.5Zm1.453 29.959c-.145.003-.29.017-.433.041H24v15.305c-6.824 1.4-12 7.474-12 14.695v6a3 3 0 0 0 3 3h11.496c.324.053.655.053.979 0H39a3 3 0 0 0 3-3v-6c0-7.222-5.176-13.295-12-14.695V45.022h-2.537a2.992 2.992 0 0 0-.51-.041ZM24 66.567v11.455h-6v-3c0-3.945 2.499-7.226 6-8.455Zm6 0c3.501 1.229 6 4.51 6 8.455v3h-6V66.567Z"/></symbol><symbol viewBox="-1 -1 34 32" id="mountain-flag" xmlns="http://www.w3.org/2000/svg"><path d="M16 .23c-.68 0-1.23.55-1.23 1.231v7.734a2.507 2.507 0 0 0-.722.63L.698 25.595A2.452 2.452 0 0 0 0 27.308a2.46 2.46 0 0 0 2.462 2.461c.057 0 .111-.013.168-.017l.01.017h26.72l.01-.017c.057.004.11.017.168.017A2.46 2.46 0 0 0 32 27.308c0-.618-.235-1.177-.61-1.609L17.951 9.824a2.507 2.507 0 0 0-.721-.63v-3.11l5.762-2.202.002-.002a.616.616 0 0 0-.06-1.166L16.452.317v.005A1.218 1.218 0 0 0 16 .231Zm-.075 11.186h.15l7.31 8.632-4.924-2.587L16 18.692l-1.23-2.461-5.003 2.454 6.159-7.27Z"/></symbol><symbol viewBox="-1 -1 92 93" id="pasta_preparation" xmlns="http://www.w3.org/2000/svg"><path d="M74.865 14.997a6 6 0 0 0-3.205 1.06s-1.872 1.256-4.64 2.561c-2.769 1.306-6.34 2.426-8.502 2.426-2.163 0-6.917-1.238-11.807-2.736-4.89-1.5-9.9-3.264-15.211-3.264-5.312 0-9.949 1.881-13.553 3.568-3.604 1.687-6.24 3.416-6.24 3.416a6 6 0 1 0 6.586 10.032s1.936-1.272 4.74-2.584c2.805-1.313 6.414-2.432 8.467-2.432 2.053 0 6.797 1.235 11.695 2.736 4.899 1.502 9.967 3.264 15.323 3.264 5.355 0 10.024-1.88 13.617-3.574 3.593-1.695 6.205-3.44 6.205-3.44a6.001 6.001 0 0 0-3.475-11.033ZM15 42.044a6.003 6.003 0 0 0-6.085 6 6 6 0 0 0 6.085 6h60a6 6 0 0 0 2.322-11.568A6.003 6.003 0 0 0 75 42.044H15Zm0 21a6.003 6.003 0 0 0-6.085 6 6 6 0 0 0 6.085 6h60a6 6 0 0 0 2.322-11.568A6.003 6.003 0 0 0 75 63.044H15Z"/></symbol><symbol viewBox="-1 -1 35 26" id="people-cards" xmlns="http://www.w3.org/2000/svg"><path d="M10.952.571a2.285 2.285 0 0 0-2.285 2.286v18.286a2.285 2.285 0 0 0 2.285 2.285h11.429a2.285 2.285 0 0 0 2.286-2.285V2.857A2.285 2.285 0 0 0 22.38.571H10.952Zm-8 2.286A2.285 2.285 0 0 0 .667 5.143v13.714a2.285 2.285 0 0 0 2.285 2.286h3.429v-3.429H2.952c0-3.357 2.948-2.404 3.429-3.848v-.964s-.897-.844-.962-1.42c0 0-.467-.175-.467-.902 0-.374.179-.462.179-.462s-.393-.545-.393-1.245c0-1.219.677-2.037 1.645-2.389V2.857h-3.43Zm24 0v4c.985 0 1.572.9 1.572 2.067 0 .583-.322 1.194-.322 1.194s.179.061.179.462c0 .579-.467.902-.467.902-.065.577-.962 1.42-.962 1.42v.962c.481 1.443 3.429.48 3.429 3.848h-3.429v3.429h3.429a2.285 2.285 0 0 0 2.286-2.286V5.143a2.285 2.285 0 0 0-2.286-2.286h-3.429ZM16.667 6.286c.724 0 1.142.571 1.142.571.986 0 1.572.9 1.572 2.067 0 .583-.322 1.194-.322 1.194s.18.061.18.462c0 .579-.467.902-.467.902-.066.577-.962 1.42-.962 1.42v.962c.48 1.443 3.428.48 3.428 3.848h-9.143c.002-3.355 2.948-2.403 3.429-3.846v-.964s-.897-.844-.962-1.42c0 0-.467-.175-.467-.902 0-.374.179-.462.179-.462s-.393-.545-.393-1.245c-.001-1.66 1.247-2.587 2.786-2.587Z"/></symbol><symbol viewBox="-1 -1 26 27" id="plus-math" xmlns="http://www.w3.org/2000/svg"><path d="M11.976 2.878A1.6 1.6 0 0 0 10.4 4.5v6.4H4a1.601 1.601 0 1 0 0 3.2h6.4v6.4a1.602 1.602 0 0 0 2.74 1.146 1.601 1.601 0 0 0 .46-1.146v-6.4H20a1.602 1.602 0 0 0 1.146-2.74A1.602 1.602 0 0 0 20 10.9h-6.4V4.5a1.6 1.6 0 0 0-1.623-1.622Z"/></symbol><symbol viewBox="-1 -1 92 93" id="preparing" xmlns="http://www.w3.org/2000/svg"><path d="M39.99 9.062a24.578 24.578 0 0 0-2.59.035C24.644 9.925 15 21.084 15 33.864v29.18c0 1.656 1.344 3 3 3h42c.82 0 1.562-.333 2.103-.867l.018-.012c.005-.005.007-.013.012-.018L78.31 49.315l-.012-.011a7.5 7.5 0 0 0 .504-11.063 7.5 7.5 0 0 0-5.303-2.197 7.5 7.5 0 0 0-4.225 1.313l-.011-.012-.346.263-.117.088L63 42.126v-9.082c0-12.92-10.216-23.462-23.01-23.982ZM18 72.044c-1.656 0-3 1.344-3 3v3c0 1.656 1.344 3 3 3h42c1.656 0 3-1.344 3-3v-3c0-1.656-1.344-3-3-3H18Z"/></symbol><symbol viewBox="-1 -1 112 112" id="pro_plating" xmlns="http://www.w3.org/2000/svg"><g clip-path="url(#bqa)"><path d="M31.168 11.002a12.833 12.833 0 1 0 0 25.667 12.833 12.833 0 0 0 0-25.667ZM77 14.669v3.666a3.668 3.668 0 0 0-3.667 3.667v3.667a3.668 3.668 0 0 0 3.667 3.666v3.667a3.668 3.668 0 0 0 3.666 3.667h14.667a3.668 3.668 0 0 0 3.667-3.667V14.669H77Zm-7.334 29.333a3.668 3.668 0 0 0-3.666 3.667 3.668 3.668 0 0 0 3.666 3.666h29.334a3.668 3.668 0 0 0 0-7.333H69.667Zm-48.124.752c-2.857.455-5.145 1.037-6.875 1.568v49.013h36.666V67.864L63.18 79.337a3.668 3.668 0 0 0 5.579.078l11.738-13.413H88a3.668 3.668 0 1 0 0-7.333h-7.505a7.33 7.33 0 0 0-4.304 1.403l.014-.028L66 67.398l-14.667-19.73s-3.773-1.843-10.542-2.914l-9.625 33.451-9.625-33.451Z"/></g><defs><clipPath id="bqa"><path d="M0 0h110v110H0z"/></clipPath></defs></symbol><symbol viewBox="-1 -1 92 93" id="sauce_preparation" xmlns="http://www.w3.org/2000/svg"><path d="M79.272 21.044c-4.835 0-7.949 3.416-9.229 6.27-.049.108-.072.207-.117.316-1.579.696-10.095 4.026-25.172 1.518-5.163-.861-27.372-5.104-32.766-5.104-7.506 0-11.988 1.848-11.988 6 0 1.629 1.336 3 2.965 3 15.852 0 6.285 27 36.006 27h8.988c10.013 0 16.781-3.194 21.035-8.584a3 3 0 0 0 4.653 2.092s3.957-2.593 7.939-6.451C85.567 43.243 90 38.11 90 31.825c0-3.208-1.228-6.056-3.252-7.951-2.024-1.895-4.721-2.83-7.477-2.83Zm0 6c1.42 0 2.583.46 3.38 1.207.797.746 1.348 1.79 1.348 3.574 0 3.086-3.067 7.56-6.586 10.969-2.79 2.703-5.104 4.357-6.146 5.08 2.337-4.482 3.463-9.985 3.632-16.154.131-.59.31-1.266.616-1.946.738-1.646 1.438-2.73 3.755-2.73ZM30 66.044a3.001 3.001 0 1 0 0 6h30a3 3 0 1 0 0-6H30Z"/></symbol><symbol viewBox="-1 -1 34 34" id="search" xmlns="http://www.w3.org/2000/svg"><path d="M13.325 0C5.982 0 0 5.982 0 13.325c0 7.344 5.982 13.326 13.325 13.326 3.194 0 6.126-1.134 8.425-3.017l7.956 7.956a1.332 1.332 0 1 0 1.884-1.884l-7.956-7.956a13.255 13.255 0 0 0 3.017-8.425C26.65 5.982 20.669 0 13.325 0Zm0 2.665a10.64 10.64 0 0 1 10.66 10.66 10.64 10.64 0 0 1-10.66 10.66 10.64 10.64 0 0 1-10.66-10.66 10.64 10.64 0 0 1 10.66-10.66Z"/></symbol><symbol viewBox="-1 -1 92 93" id="seasoning" xmlns="http://www.w3.org/2000/svg"><path d="M87 9.706 61.113 20.13c-2.599.78-5.916.817-9.152.79a49.42 49.42 0 0 0-8.174-2.032 66.523 66.523 0 0 0-12.281-.82c-1.758.05-3.312.177-4.611.368-1.29.19-2.198.3-3.405.979-1.894 1.032-3.844 2.745-6.023 5.092a51.781 51.781 0 0 0-6.463 8.642 42.1 42.1 0 0 0-3.106 6.387c-4.405 5.606-6.18 11.734-3.873 16.676 2.283 5.937 21.47 29.684 46.588 19.178 20.097-8.68 20.555-26.033 20.555-36.54 0-2.738 1.37-6.852 7.764-9.591 1.905-.813 4.792-1.957 8.068-3.328V9.706ZM31.682 24.067c3.138-.091 7.148.091 11.144.739 3.996.647 7.98 1.774 11.057 3.41 3.067 1.63 5.134 3.654 6.017 6.176.323.972-.536 4.253-3.996 7.904-3.462 3.654-9.002 7.508-15.797 10.207a3.761 3.761 0 0 0-.047.017c-7.145 2.976-13.92 4.524-18.884 4.524-2.482 0-4.487-.394-5.836-1.008-1.35-.614-2.032-1.317-2.444-2.338l-.005-.017c-2.078-5.067-.19-11.649 3.27-17.467 1.729-2.91 3.798-5.57 5.706-7.623 1.908-2.054 3.777-3.531 4.506-3.926l.053-.03c-.385.22.365-.118 1.347-.263.983-.145 2.34-.259 3.909-.305ZM24 36.044a3 3 0 1 0 0 6 3 3 0 0 0 0-6Zm12 3a3 3 0 1 0 0 6 3 3 0 0 0 0-6Zm-9 6a3 3 0 1 0 0 6 3 3 0 0 0 0-6Z"/></symbol><symbol viewBox="-1 -1 92 92" id="serving" xmlns="http://www.w3.org/2000/svg"><path d="M25.5 9a10.5 10.5 0 1 0 0 21 10.5 10.5 0 0 0 0-21ZM63 12v3c-1.656 0-3 1.344-3 3v3c0 1.656 1.344 3 3 3v3c0 1.656 1.344 3 3 3h12c1.656 0 3-1.344 3-3V12H63Zm-6 24a3.001 3.001 0 0 0 0 6h24a3.001 3.001 0 0 0 0-6H57Zm-39.375.615A41.173 41.173 0 0 0 12 37.898V78h30V55.523l9.691 9.387a3.002 3.002 0 0 0 4.565.065L65.859 54H72a3 3 0 1 0 0-6h-6.14c-1.276 0-2.505.41-3.522 1.148l.012-.023L54 55.143 42 39s-3.087-1.509-8.625-2.385L25.5 63.985l-7.875-27.37Z"/></symbol><symbol viewBox="-1 -1 92 93" id="setting_temperature" xmlns="http://www.w3.org/2000/svg"><path d="M36 9.978c-3.28 0-6 2.72-6 6v23.766c-5.326 4.4-9 10.8-9 18.234 0 13.22 10.78 24 24 24s24-10.78 24-24c0-7.434-3.674-13.834-9-18.234v-2.766h3a3.001 3.001 0 1 0 0-6h-3v-6h3a3.001 3.001 0 1 0 0-6h-3v-3c0-3.28-2.72-6-6-6H36Zm0 6h18v5.496a3.003 3.003 0 0 0 0 .979v11.021a3.003 3.003 0 0 0 0 .979v7.869l1.283.896C59.948 46.475 63 51.843 63 57.978c0 9.977-8.023 18-18 18s-18-8.023-18-18c0-6.135 3.052-11.503 7.717-14.76L36 42.322V15.978Zm6 9v21.393a12 12 0 0 0-9 11.607 12 12 0 0 0 24 0 12 12 0 0 0-9-11.602V24.979h-6Z"/></symbol><symbol viewBox="-1 -1 92 93" id="shaping" xmlns="http://www.w3.org/2000/svg"><path d="M25.5 9.934c-1.743 0-3.237 1-3.984 2.45L9.79 35.89A4.474 4.474 0 0 0 9 38.434c0 .798.226 1.535.592 2.186l9.287 21.422a10.38 10.38 0 0 1-.621 9.468L12 81.934h24l7.33-10.863c.741-1.227.573-1.735.486-2.584l-8.414-15.352-8.39-5.326L21 36.934l8.754-21.082c.15-.447.246-.92.246-1.418 0-2.484-2.016-4.5-4.5-4.5Zm39 0a4.502 4.502 0 0 0-4.5 4.5c0 .498.096.971.246 1.418L69 36.934 62.988 47.81l-8.39 5.326-3.715-11.39a6.001 6.001 0 0 0-9.235-3.785 6.054 6.054 0 0 0-1.623 1.623A5.955 5.955 0 0 0 39 42.934c0 .603.116 1.174.281 1.723l5.912 22.705a10.45 10.45 0 0 0 1.477 3.709L54 81.934h24L71.742 71.51a10.38 10.38 0 0 1-.62-9.469l9.286-21.421A4.435 4.435 0 0 0 81 38.434c0-.945-.293-1.817-.791-2.543L68.484 12.383c-.747-1.449-2.241-2.449-3.984-2.449Z"/></symbol><symbol viewBox="-1 -1 53 52" id="share" xmlns="http://www.w3.org/2000/svg"><path d="M25.474 1.667a1.667 1.667 0 0 0-1.152.488l-6.667 6.667a1.668 1.668 0 1 0 2.357 2.356l3.821-3.821v20.976a1.666 1.666 0 1 0 3.334 0V7.357l3.821 3.821a1.667 1.667 0 1 0 2.357-2.356l-6.667-6.667a1.667 1.667 0 0 0-1.204-.488ZM15.5 15c-2.742 0-5 2.258-5 5v20c0 2.742 2.258 5 5 5h20c2.742 0 5-2.258 5-5V20c0-2.742-2.258-5-5-5h-3.333v3.333H35.5A1.64 1.64 0 0 1 37.167 20v20a1.64 1.64 0 0 1-1.667 1.667h-20A1.64 1.64 0 0 1 13.833 40V20a1.64 1.64 0 0 1 1.667-1.667h3.333V15H15.5Z"/></symbol><symbol viewBox="-1 -1 92 93" id="simmering" xmlns="http://www.w3.org/2000/svg"><g clip-path="url(#bya)"><path d="M35.953 15.871A3 3 0 0 0 33 18.912v18a3 3 0 1 0 6 0v-18a3 3 0 0 0-3.047-3.04Zm-12 9A3 3 0 0 0 21 27.912v9a3 3 0 1 0 6 0v-9a3 3 0 0 0-3.047-3.04Zm24 0A3 3 0 0 0 45 27.912v9a3 3 0 1 0 6 0v-9a3 3 0 0 0-3.047-3.04Zm29.531 15.041c-2.386 0-4.676.95-6.363 2.637l-3.363 3.363H3a3 3 0 0 0-2.848 3.95l3.95 11.847a12.026 12.026 0 0 0 11.384 8.203h41.028c5.152 0 9.75-3.312 11.379-8.203l3.732-11.18 3.738-3.738a3.002 3.002 0 0 1 2.121-.879H87a3 3 0 1 0 0-6h-9.516Z"/></g><defs><clipPath id="bya"><path transform="translate(0 .912)" d="M0 0h90v90H0z"/></clipPath></defs></symbol><symbol viewBox="-1 -1 92 92" id="straining" xmlns="http://www.w3.org/2000/svg"><path d="M9 21a3 3 0 1 0 0 6h.111c.163 2.855.532 5.543 1.12 8.05-.193-.082-.473-.15-.64-.233-1.141-.572-1.47-.938-1.47-.938a2.999 2.999 0 0 0-5.086 2.708 3 3 0 0 0 .844 1.534s1.171 1.134 3.03 2.063c1.38.69 3.25 1.355 5.554 1.652C16.884 52.206 24.933 58.966 33 63h9a3.001 3.001 0 0 1 0 6H30a3 3 0 1 0 0 6h33a3.001 3.001 0 1 0 0-6h-1.5l-3.334-6.662c7.669-4.09 15.164-10.635 19.371-20.502 2.304-.297 4.174-.962 5.555-1.652 1.858-.93 3.03-2.063 3.03-2.063a3 3 0 1 0-4.243-4.242s-.329.366-1.47.938c-.167.082-.447.151-.64.234.588-2.508.957-5.196 1.12-8.05H81a3.001 3.001 0 1 0 0-6H9Zm12 12a3.001 3.001 0 0 1 0 6 3.001 3.001 0 0 1 0-6Zm12 0a3.001 3.001 0 0 1 0 6 3.001 3.001 0 0 1 0-6Zm12 0a3.001 3.001 0 0 1 0 6 3.001 3.001 0 0 1 0-6Zm12 0a3.001 3.001 0 0 1 0 6 3.001 3.001 0 0 1 0-6Zm12 0a3.001 3.001 0 0 1 0 6 3.001 3.001 0 0 1 0-6Zm-42 9a3.001 3.001 0 0 1 0 6 3.001 3.001 0 0 1 0-6Zm12 0a3.001 3.001 0 0 1 0 6 3.001 3.001 0 0 1 0-6Zm12 0a3.001 3.001 0 0 1 0 6 3.001 3.001 0 0 1 0-6Zm12 0a3.001 3.001 0 0 1 0 6 3.001 3.001 0 0 1 0-6Zm-30 9a3.001 3.001 0 0 1 0 6 3.001 3.001 0 0 1 0-6Zm12 0a3.001 3.001 0 0 1 0 6 3.001 3.001 0 0 1 0-6Zm12 0a3.001 3.001 0 0 1 0 6 3.001 3.001 0 0 1 0-6Z"/></symbol><symbol viewBox="-1 -1 25 24" id="synchronize" xmlns="http://www.w3.org/2000/svg"><path d="M11.124 2.2c-4.464 0-8.155 3.34-8.717 7.656a.733.733 0 1 0 1.454.189 7.32 7.32 0 0 1 7.263-6.378c2.029 0 3.85.827 5.176 2.157l-1.51 1.51 4.4.733-.733-4.4-1.121 1.121A8.76 8.76 0 0 0 11.124 2.2Zm8.002 9.107a.734.734 0 0 0-.74.648 7.32 7.32 0 0 1-7.262 6.378c-2.216 0-4.181-.99-5.526-2.54l1.126-1.126-4.4-.734.733 4.4 1.503-1.502c1.61 1.812 3.95 2.969 6.564 2.969 4.463 0 8.154-3.34 8.717-7.656a.735.735 0 0 0-.715-.838Z"/></symbol><symbol viewBox="-1 -1 70 70" id="time" xmlns="http://www.w3.org/2000/svg"><path d="M31.874 4.5a2.25 2.25 0 0 0-2.25 2.25v2.68c-11.5 2.127-20.25 12.216-20.25 24.32 0 13.642 11.107 24.75 24.75 24.75 13.642 0 24.75-11.108 24.75-24.75 0-12.104-8.75-22.193-20.25-24.32V6.75a2.25 2.25 0 0 0-2.25-2.25h-4.5Zm20.228 4.478a2.25 2.25 0 0 0-1.569 3.863l2.25 2.25a2.248 2.248 0 0 0 3.214.033 2.249 2.249 0 0 0-.032-3.215l-2.25-2.25a2.25 2.25 0 0 0-1.613-.681ZM34.124 13.5c11.21 0 20.25 9.04 20.25 20.25S45.334 54 34.124 54s-20.25-9.04-20.25-20.25 9.04-20.25 20.25-20.25Zm-.035 4.47a2.25 2.25 0 0 0-2.215 2.28v9.61a4.5 4.5 0 0 0-2.25 3.89 4.5 4.5 0 0 0 2.25 3.894V40.5a2.25 2.25 0 1 0 4.5 0v-2.86a4.5 4.5 0 0 0 2.25-3.89 4.5 4.5 0 0 0-2.25-3.894V20.25a2.25 2.25 0 0 0-2.285-2.28Z"/></symbol><symbol viewBox="-1 -1 36 35" id="trophy" xmlns="http://www.w3.org/2000/svg"><path d="M8.352 3.342a1.097 1.097 0 1 0 0 2.193v2.602a3.559 3.559 0 0 0-1.645-.409 3.854 3.854 0 0 0-3.838 3.838c0 1.481.966 2.633 2.112 3.578 1.145.945 2.578 1.74 3.996 2.414a41.22 41.22 0 0 0 3.474 1.441c1.33 1.805 2.48 2.984 2.48 2.984h4.386s1.149-1.179 2.48-2.984a41.238 41.238 0 0 0 3.473-1.441c1.418-.673 2.85-1.469 3.996-2.414 1.146-.944 2.112-2.097 2.112-3.578a3.854 3.854 0 0 0-3.838-3.838c-.62 0-1.162.162-1.645.41V5.534a1.096 1.096 0 1 0 0-2.193H8.352Zm-1.645 6.58c.786 0 1.46.688 1.992 1.633.009.016.014.031.023.047.365 1.468.964 2.887 1.662 4.18-.158-.071-.307-.128-.465-.203-1.323-.629-2.631-1.375-3.542-2.126-.91-.752-1.315-1.45-1.315-1.887 0-.922.723-1.645 1.645-1.645Zm20.833 0c.922 0 1.645.722 1.645 1.644 0 .437-.404 1.135-1.315 1.887-.91.75-2.219 1.498-3.542 2.126-.158.075-.307.132-.465.204.698-1.294 1.297-2.713 1.662-4.18l.024-.048c.531-.945 1.205-1.634 1.991-1.634ZM13.834 24.174a2.192 2.192 0 0 0-2.193 2.194v1.096a1.095 1.095 0 0 0-.424 2.114c.134.054.279.081.424.079h10.965a1.096 1.096 0 1 0 0-2.193v-1.096a2.192 2.192 0 0 0-2.193-2.194h-6.579Z"/></symbol><symbol width="19" height="20" viewBox="0 0 19 20" id="play" xmlns="http://www.w3.org/2000/svg"><path d="M1.3 0.149902C1.08783 0.149902 0.884345 0.234188 0.734316 0.384217C0.584287 0.534246 0.500002 0.737729 0.500002 0.949902C0.499999 0.950944 0.499999 0.951986 0.500002 0.953027L0.500002 9.7499L0.500002 18.5468C0.499999 18.5478 0.499999 18.5489 0.500002 18.5499C0.500002 18.7621 0.584287 18.9656 0.734316 19.1156C0.884345 19.2656 1.08783 19.3499 1.3 19.3499C1.46653 19.3494 1.62876 19.297 1.76406 19.1999L1.76563 19.2015L17.6328 10.4765C17.7721 10.4128 17.8901 10.3104 17.9729 10.1817C18.0557 10.0529 18.0998 9.90302 18.1 9.7499C18.1001 9.59249 18.0537 9.43856 17.9667 9.30737C17.8797 9.17619 17.756 9.07358 17.6109 9.0124L1.76563 0.29834L1.76406 0.29834C1.62857 0.201814 1.46636 0.149928 1.3 0.149902Z"/></symbol></svg>