<svg width="256" height="256" viewBox="0 0 256 256" fill="none" xmlns="http://www.w3.org/2000/svg">
<path d="M85.665 121.479C80.3298 130.918 66.7334 130.918 61.3981 121.479L16.7308 42.4517C11.7517 33.6426 18.1159 22.7349 28.2348 22.7349C35.183 22.7349 41.5431 26.6352 44.6934 32.8282L67.3203 77.3083C69.9039 82.3871 77.1593 82.3871 79.7428 77.3083L102.37 32.8282C105.52 26.6352 111.88 22.7349 118.828 22.7349C128.947 22.7349 135.311 33.6426 130.332 42.4517L85.665 121.479Z" fill="black"/>
<path d="M180.061 171.691C187.044 171.691 192.83 177.406 191.451 184.251C190.367 189.63 188.588 194.863 186.146 199.816C181.832 208.564 175.563 216.203 167.825 222.14C160.087 228.078 151.086 232.156 141.52 234.059C131.953 235.962 122.077 235.639 112.656 233.114C103.234 230.59 94.5198 225.932 87.1865 219.5C79.8532 213.069 74.0975 205.037 70.3649 196.026C66.6322 187.015 65.0226 177.265 65.6606 167.532C66.0218 162.022 67.098 156.6 68.8489 151.399C71.077 144.782 78.9457 142.727 84.9925 146.218C91.0393 149.709 92.8675 157.472 91.5245 164.324C91.2106 165.925 90.9986 167.549 90.8913 169.186C90.507 175.049 91.4766 180.922 93.7251 186.35C95.9735 191.778 99.4406 196.616 103.858 200.49C108.275 204.364 113.525 207.17 119.2 208.691C124.875 210.212 130.824 210.406 136.587 209.26C142.35 208.114 147.771 205.657 152.433 202.08C157.094 198.504 160.87 193.903 163.469 188.633C164.194 187.162 164.823 185.649 165.351 184.105C167.614 177.5 173.079 171.691 180.061 171.691Z" fill="black"/>
<path d="M238.001 100.262C238.001 129.608 211.871 153.398 179.638 153.398C147.404 153.398 121.274 129.608 121.274 100.262C121.274 70.9151 147.404 47.125 179.638 47.125C211.871 47.125 238.001 70.9151 238.001 100.262ZM144.62 100.262C144.62 117.869 160.298 132.144 179.638 132.144C198.977 132.144 214.655 117.869 214.655 100.262C214.655 82.6537 198.977 68.3796 179.638 68.3796C160.298 68.3796 144.62 82.6537 144.62 100.262Z" fill="black"/>
</svg>
