<svg width="46" height="46" viewBox="0 0 46 46" fill="none" xmlns="http://www.w3.org/2000/svg">
<path d="M2.6501 23.1822C2.6501 11.7499 11.9178 2.48219 23.3501 2.48219C34.7824 2.48219 44.0501 11.7499 44.0501 23.1822C44.0501 34.6145 34.7824 43.8822 23.3501 43.8822C11.9178 43.8822 2.6501 34.6145 2.6501 23.1822Z" fill="#242426"/>
<path d="M2.6501 23.1822C2.6501 11.7499 11.9178 2.48219 23.3501 2.48219C34.7824 2.48219 44.0501 11.7499 44.0501 23.1822C44.0501 34.6145 34.7824 43.8822 23.3501 43.8822C11.9178 43.8822 2.6501 34.6145 2.6501 23.1822Z" stroke="#34C759" stroke-width="3.6"/>
<g clip-path="url(#clip0_667_636)">
<path d="M16.9507 13.5817C16.8447 13.5802 16.7394 13.5998 16.641 13.6393C16.5427 13.6788 16.4531 13.7375 16.3776 13.812C16.3021 13.8864 16.2422 13.9751 16.2013 14.0729C16.1604 14.1707 16.1393 14.2757 16.1393 14.3817C16.1393 14.4877 16.1604 14.5927 16.2013 14.6905C16.2422 14.7883 16.3021 14.877 16.3776 14.9514C16.4531 15.0258 16.5427 15.0845 16.641 15.1241C16.7394 15.1636 16.8447 15.1832 16.9507 15.1817V17.0801C16.5984 16.9001 16.2035 16.7817 15.7507 16.7817C14.2137 16.7817 12.9507 18.0447 12.9507 19.5817C12.9507 20.6626 13.6556 21.5032 14.4913 22.1926C15.327 22.8821 16.3725 23.4622 17.4069 23.9536C18.3241 24.3892 19.2096 24.7364 19.9413 25.0051C20.9121 26.322 21.7507 27.1817 21.7507 27.1817H23.3507H24.9507C24.9507 27.1817 25.7892 26.322 26.7601 25.0051C27.4918 24.7364 28.3773 24.3892 29.2944 23.9536C30.3288 23.4622 31.3744 22.8821 32.2101 22.1926C33.0457 21.5032 33.7507 20.6626 33.7507 19.5817C33.7507 18.0447 32.4876 16.7817 30.9507 16.7817C30.4979 16.7817 30.1029 16.9001 29.7507 17.0801V15.1817C29.8567 15.1832 29.9619 15.1636 30.0603 15.1241C30.1587 15.0845 30.2482 15.0258 30.3237 14.9514C30.3992 14.877 30.4592 14.7883 30.5001 14.6905C30.541 14.5927 30.5621 14.4877 30.5621 14.3817C30.5621 14.2757 30.541 14.1707 30.5001 14.0729C30.4592 13.9751 30.3992 13.8864 30.3237 13.812C30.2482 13.7375 30.1587 13.6788 30.0603 13.6393C29.9619 13.5998 29.8567 13.5802 29.7507 13.5817H16.9507ZM15.7507 18.3817C16.324 18.3817 16.8159 18.8842 17.2038 19.5739C17.2104 19.5855 17.2146 19.5966 17.221 19.6082C17.487 20.6791 17.9243 21.7146 18.4335 22.6582C18.3186 22.6059 18.2096 22.5645 18.0944 22.5098C17.1288 22.0511 16.1744 21.5063 15.5101 20.9582C14.8457 20.4102 14.5507 19.9007 14.5507 19.5817C14.5507 18.909 15.078 18.3817 15.7507 18.3817ZM30.9507 18.3817C31.6233 18.3817 32.1507 18.909 32.1507 19.5817C32.1507 19.9007 31.8556 20.4102 31.1913 20.9582C30.527 21.5063 29.5725 22.0511 28.6069 22.5098C28.4918 22.5645 28.3828 22.6059 28.2679 22.6582C28.777 21.7146 29.2144 20.6791 29.4804 19.6082C29.4868 19.5966 29.491 19.5855 29.4976 19.5739C29.8855 18.8842 30.3773 18.3817 30.9507 18.3817ZM20.9507 28.7817C20.0667 28.7817 19.3507 29.4977 19.3507 30.3817V31.1817C19.2447 31.1802 19.1394 31.1998 19.041 31.2393C18.9427 31.2788 18.8531 31.3375 18.7776 31.412C18.7021 31.4864 18.6422 31.5751 18.6013 31.6729C18.5604 31.7707 18.5393 31.8757 18.5393 31.9817C18.5393 32.0877 18.5604 32.1927 18.6013 32.2905C18.6422 32.3883 18.7021 32.477 18.7776 32.5514C18.8531 32.6258 18.9427 32.6845 19.041 32.7241C19.1394 32.7636 19.2447 32.7832 19.3507 32.7817H27.3507C27.4567 32.7832 27.5619 32.7636 27.6603 32.7241C27.7587 32.6845 27.8482 32.6258 27.9237 32.5514C27.9992 32.477 28.0592 32.3883 28.1001 32.2905C28.141 32.1927 28.1621 32.0877 28.1621 31.9817C28.1621 31.8757 28.141 31.7707 28.1001 31.6729C28.0592 31.5751 27.9992 31.4864 27.9237 31.412C27.8482 31.3375 27.7587 31.2788 27.6603 31.2393C27.5619 31.1998 27.4567 31.1802 27.3507 31.1817V30.3817C27.3507 29.4977 26.6347 28.7817 25.7507 28.7817H20.9507Z" fill="#34C759"/>
</g>
<defs>
<clipPath id="clip0_667_636">
<rect width="24" height="24" fill="white" transform="translate(11.3501 11.1822)"/>
</clipPath>
</defs>
</svg>
