<svg width="46" height="46" viewBox="0 0 46 46" fill="none" xmlns="http://www.w3.org/2000/svg">
<path d="M2.8501 23.3644C2.8501 12.0425 12.0283 2.86438 23.3501 2.86438C34.6719 2.86438 43.8501 12.0425 43.8501 23.3644C43.8501 34.6862 34.6719 43.8644 23.3501 43.8644C12.0283 43.8644 2.8501 34.6862 2.8501 23.3644Z" fill="white"/>
<path d="M2.8501 23.3644C2.8501 12.0425 12.0283 2.86438 23.3501 2.86438C34.6719 2.86438 43.8501 12.0425 43.8501 23.3644C43.8501 34.6862 34.6719 43.8644 23.3501 43.8644C12.0283 43.8644 2.8501 34.6862 2.8501 23.3644Z" stroke="#34C759" stroke-width="4"/>
<g clip-path="url(#clip0_667_1055)">
<path d="M16.9507 13.7639C16.8447 13.7624 16.7394 13.782 16.641 13.8215C16.5427 13.861 16.4531 13.9197 16.3776 13.9941C16.3021 14.0686 16.2422 14.1573 16.2013 14.2551C16.1604 14.3529 16.1393 14.4579 16.1393 14.5639C16.1393 14.6699 16.1604 14.7749 16.2013 14.8727C16.2422 14.9705 16.3021 15.0592 16.3776 15.1336C16.4531 15.208 16.5427 15.2667 16.641 15.3063C16.7394 15.3458 16.8447 15.3654 16.9507 15.3639V17.2623C16.5984 17.0823 16.2035 16.9639 15.7507 16.9639C14.2137 16.9639 12.9507 18.2269 12.9507 19.7639C12.9507 20.8448 13.6556 21.6854 14.4913 22.3748C15.327 23.0642 16.3725 23.6444 17.4069 24.1357C18.3241 24.5714 19.2096 24.9186 19.9413 25.1873C20.9121 26.5042 21.7507 27.3639 21.7507 27.3639H23.3507H24.9507C24.9507 27.3639 25.7892 26.5042 26.7601 25.1873C27.4918 24.9186 28.3773 24.5714 29.2944 24.1357C30.3288 23.6444 31.3744 23.0642 32.2101 22.3748C33.0457 21.6854 33.7507 20.8448 33.7507 19.7639C33.7507 18.2269 32.4876 16.9639 30.9507 16.9639C30.4979 16.9639 30.1029 17.0823 29.7507 17.2623V15.3639C29.8567 15.3654 29.9619 15.3458 30.0603 15.3063C30.1587 15.2667 30.2482 15.208 30.3237 15.1336C30.3992 15.0592 30.4592 14.9705 30.5001 14.8727C30.541 14.7749 30.5621 14.6699 30.5621 14.5639C30.5621 14.4579 30.541 14.3529 30.5001 14.2551C30.4592 14.1573 30.3992 14.0686 30.3237 13.9941C30.2482 13.9197 30.1587 13.861 30.0603 13.8215C29.9619 13.782 29.8567 13.7624 29.7507 13.7639H16.9507ZM15.7507 18.5639C16.324 18.5639 16.8159 19.0664 17.2038 19.7561C17.2104 19.7677 17.2146 19.7788 17.221 19.7904C17.487 20.8613 17.9243 21.8968 18.4335 22.8404C18.3186 22.7881 18.2096 22.7467 18.0944 22.692C17.1288 22.2333 16.1744 21.6885 15.5101 21.1404C14.8457 20.5924 14.5507 20.0829 14.5507 19.7639C14.5507 19.0912 15.078 18.5639 15.7507 18.5639ZM30.9507 18.5639C31.6233 18.5639 32.1507 19.0912 32.1507 19.7639C32.1507 20.0829 31.8556 20.5924 31.1913 21.1404C30.527 21.6885 29.5725 22.2333 28.6069 22.692C28.4918 22.7467 28.3828 22.7881 28.2679 22.8404C28.777 21.8968 29.2144 20.8613 29.4804 19.7904C29.4868 19.7788 29.491 19.7677 29.4976 19.7561C29.8855 19.0664 30.3773 18.5639 30.9507 18.5639ZM20.9507 28.9639C20.0667 28.9639 19.3507 29.6799 19.3507 30.5639V31.3639C19.2447 31.3624 19.1394 31.382 19.041 31.4215C18.9427 31.461 18.8531 31.5197 18.7776 31.5941C18.7021 31.6686 18.6422 31.7573 18.6013 31.8551C18.5604 31.9529 18.5393 32.0579 18.5393 32.1639C18.5393 32.2699 18.5604 32.3749 18.6013 32.4727C18.6422 32.5705 18.7021 32.6592 18.7776 32.7336C18.8531 32.808 18.9427 32.8667 19.041 32.9063C19.1394 32.9458 19.2447 32.9654 19.3507 32.9639H27.3507C27.4567 32.9654 27.5619 32.9458 27.6603 32.9063C27.7587 32.8667 27.8482 32.808 27.9237 32.7336C27.9992 32.6592 28.0592 32.5705 28.1001 32.4727C28.141 32.3749 28.1621 32.2699 28.1621 32.1639C28.1621 32.0579 28.141 31.9529 28.1001 31.8551C28.0592 31.7573 27.9992 31.6686 27.9237 31.5941C27.8482 31.5197 27.7587 31.461 27.6603 31.4215C27.5619 31.382 27.4567 31.3624 27.3507 31.3639V30.5639C27.3507 29.6799 26.6347 28.9639 25.7507 28.9639H20.9507Z" fill="#34C759"/>
</g>
<defs>
<clipPath id="clip0_667_1055">
<rect width="24" height="24" fill="white" transform="translate(11.3501 11.3644)"/>
</clipPath>
</defs>
</svg>
