<svg width="32" height="32" viewBox="0 0 32 32" xmlns="http://www.w3.org/2000/svg"><path d="M16.0375 2.09473C15.7647 2.09473 15.4919 2.20078 15.2834 2.40931L7.7417 9.95098C7.53797 10.1547 7.4292 10.4278 7.4292 10.7051C7.4292 10.8427 7.4529 10.9812 7.50837 11.1135C7.67263 11.5124 8.06493 11.7718 8.49587 11.7718H12.8375V27.7718C12.8375 28.9505 13.7922 29.9051 14.9709 29.9051H17.1042C18.2829 29.9051 19.2375 28.9505 19.2375 27.7718V11.7718H23.5792C24.0101 11.7718 24.4004 11.5124 24.5646 11.1135C24.731 10.7145 24.6384 10.2571 24.3334 9.95098L16.7917 2.40931C16.5832 2.20078 16.3103 2.09473 16.0375 2.09473Z"/></svg>