<svg width="21" height="21" viewBox="0 0 21 21" fill="none" xmlns="http://www.w3.org/2000/svg">
<g clip-path="url(#clip0_6214_19128)">
<path d="M10.3289 2.6499C5.91092 2.6499 2.32892 6.2319 2.32892 10.6499C2.32892 15.0679 5.91092 18.6499 10.3289 18.6499C14.7469 18.6499 18.3289 15.0679 18.3289 10.6499C18.3289 6.2319 14.7469 2.6499 10.3289 2.6499ZM14.8003 9.12124L9.76025 14.1612C9.63492 14.2866 9.46559 14.3566 9.28892 14.3566C9.11225 14.3566 8.94225 14.2866 8.81759 14.1612L6.51559 11.8592C6.25492 11.5986 6.25492 11.1772 6.51559 10.9166C6.77625 10.6559 7.19759 10.6559 7.45825 10.9166L9.28892 12.7472L13.8576 8.17857C14.1183 7.9179 14.5396 7.9179 14.8003 8.17857C15.0609 8.43924 15.0609 8.86057 14.8003 9.12124Z" fill="white"/>
</g>
<defs>
<clipPath id="clip0_6214_19128">
<rect width="20" height="20" fill="white" transform="translate(0.328491 0.650391)"/>
</clipPath>
</defs>
</svg>
