<svg width="36" height="36" viewBox="0 0 36 36" xmlns="http://www.w3.org/2000/svg"><path fill-rule="evenodd" clip-rule="evenodd" d="M18 36C27.9411 36 36 27.9412 36 18C36 8.05884 27.9411 0 18 0C8.05887 0 0 8.05884 0 18C0 27.9412 8.05887 36 18 36ZM16.5785 25.1118L27.5118 14.1785C28.1635 13.5267 28.1635 12.4734 27.5118 11.8218C26.8601 11.17 25.8068 11.17 25.1551 11.8218L15.4001 21.5768L10.8235 17.0001C10.1718 16.3484 9.11844 16.3484 8.46677 17.0001C7.81512 17.6517 7.81512 18.7051 8.46677 19.3568L14.2218 25.1118C14.5334 25.425 14.9584 25.6001 15.4001 25.6001C15.8418 25.6001 16.2651 25.425 16.5785 25.1118Z"/></svg>