<svg width="77" height="77" viewBox="0 0 77 77" xmlns="http://www.w3.org/2000/svg"><path d="M61.5148 5.44422C60.8572 5.46381 60.233 5.73865 59.7746 6.21051C59.7746 6.21051 58.8181 7.19899 58.0343 8.76648C57.4833 9.86859 56.963 11.3559 56.6946 13.1566C49.8446 13.6336 46.3767 18.5066 46.3767 25.7189C45.4579 40.1142 41.5729 55.112 22.9429 62.9412C21.8216 63.412 21.0642 64.4824 21.0642 65.6949C21.0642 67.368 22.444 68.757 24.1146 68.676C48.1767 67.5041 69.1531 53.5623 69.1531 25.101C69.1531 19.4757 66.6834 15.1022 61.7472 13.6164C61.9387 12.5261 62.2509 11.6547 62.5629 11.0308C63.0448 10.067 63.3539 9.78986 63.3539 9.78986C63.7197 9.43431 63.9695 8.97656 64.0707 8.47659C64.1718 7.97661 64.1196 7.45775 63.9208 6.98798C63.7219 6.51822 63.3859 6.11948 62.9565 5.844C62.5272 5.56853 62.0247 5.42918 61.5148 5.44422ZM43.8455 8.00019C41.4089 8.00019 39.3193 8.98582 38.0019 10.3584C36.6844 11.731 36.0296 13.2943 35.4706 14.6002C34.9117 15.9062 34.4306 16.9777 34.0171 17.4973C33.6036 18.0169 33.5466 18.1252 32.6823 18.1252C30.8182 18.1252 28.167 17.0798 26.1169 15.9202C24.0667 14.7606 22.6512 13.6213 22.6512 13.6213C22.2792 13.3221 21.8302 13.1341 21.3559 13.0792C20.8816 13.0242 20.4015 13.1045 19.9709 13.3108C19.5403 13.517 19.1768 13.8408 18.9224 14.2448C18.668 14.6488 18.533 15.1165 18.533 15.5939C18.533 23.446 20.6776 28.2308 22.7155 31.4983C23.7344 33.132 24.6713 34.3912 25.2616 35.4484C25.8519 36.5056 26.1267 37.2852 26.1267 38.3752C26.1267 39.7793 25.7491 41.1953 25.133 42.0633C24.517 42.9313 23.846 43.4377 22.1816 43.4377C20.4654 43.4377 19.814 42.7728 19.235 41.9644C18.656 41.156 18.4786 40.3824 18.4786 40.3824C18.3818 39.9251 18.1603 39.5036 17.8387 39.1645C17.5171 38.8254 17.1078 38.582 16.6563 38.4612C16.2049 38.3404 15.7287 38.3469 15.2807 38.4801C14.8327 38.6133 14.4303 38.8678 14.1181 39.2156C14.1181 39.2156 12.5394 41.0126 11.1469 44.2238C9.75438 47.4349 8.408 52.2272 8.408 58.6252C8.40325 58.9606 8.46522 59.2936 8.5903 59.6049C8.71538 59.9162 8.90107 60.1995 9.13659 60.4383C9.37211 60.6772 9.65276 60.8669 9.96222 60.9963C10.2717 61.1258 10.6038 61.1925 10.9392 61.1925C11.2747 61.1925 11.6068 61.1258 11.9163 60.9963C12.2257 60.8669 12.5064 60.6772 12.7419 60.4383C12.9774 60.1995 13.1631 59.9162 13.2882 59.6049C13.4133 59.2936 13.4752 58.9606 13.4705 58.6252C13.4705 52.9339 14.6554 48.8668 15.7941 46.2408C15.9435 45.8963 15.9247 46.0517 16.066 45.7613C17.4252 47.1749 19.3825 48.5002 22.1816 48.5002C25.2607 48.5002 27.8243 47.0196 29.2611 44.995C30.698 42.9704 31.1892 40.5882 31.1892 38.3752C31.1892 36.2796 30.5149 34.4742 29.6814 32.9814C28.8479 31.4887 27.8862 30.2288 27.0068 28.8187C25.788 26.8647 24.841 24.1339 24.2382 20.6169C26.5825 21.8948 29.4722 23.1877 32.6823 23.1877C34.9225 23.1877 36.8798 22.0303 37.9772 20.6515C39.0745 19.2727 39.5983 17.813 40.1228 16.5876C40.6472 15.3623 41.1506 14.3944 41.6554 13.8685C42.1601 13.3427 42.5549 13.0627 43.8455 13.0627C44.1809 13.0674 44.5139 13.0055 44.8252 12.8804C45.1365 12.7553 45.4198 12.5696 45.6586 12.3341C45.8975 12.0986 46.0872 11.8179 46.2167 11.5085C46.3461 11.199 46.4128 10.8669 46.4128 10.5314C46.4128 10.196 46.3461 9.86387 46.2167 9.55441C46.0872 9.24494 45.8975 8.9643 45.6586 8.72878C45.4198 8.49326 45.1365 8.30757 44.8252 8.18249C44.5139 8.05741 44.1809 7.99544 43.8455 8.00019Z"/></svg>