<svg width="32" height="32" viewBox="0 0 32 32" xmlns="http://www.w3.org/2000/svg"><path d="M19.7338 3.19995L18.1338 4.79995L19.7338 6.39995L21.3338 4.79995L19.7338 3.19995ZM11.2005 4.26662C10.3173 4.26662 9.60046 4.98342 9.60046 5.86662C9.60046 6.74982 10.3173 7.46662 11.2005 7.46662H12.813C13.3975 7.46662 13.8732 7.93208 13.8796 8.51662C13.8999 10.282 13.8671 13.8666 13.8671 13.8666C13.8671 13.8666 16.0005 10.6666 16.0005 7.46662C16.0005 5.83248 14.9338 4.26662 12.8005 4.26662H11.2005ZM25.6005 4.26662C24.4345 4.26662 23.4671 5.23402 23.4671 6.39995V8.53328H22.4005C21.2345 8.53328 20.2671 9.50068 20.2671 10.6666V11.7333H20.188C19.3162 11.7333 18.4669 12.0159 17.7692 12.5395L17.6921 12.5979L15.2171 15.275L16.7838 16.725L19.0859 14.2333C19.4083 14.0014 19.7905 13.8666 20.188 13.8666H20.2671C21.4331 13.8666 22.4005 12.8992 22.4005 11.7333V10.6666H23.4671C24.6331 10.6666 25.6005 9.69922 25.6005 8.53328V6.39995H28.8005V4.26662H25.6005ZM5.86712 5.33328L4.26712 6.93328L5.86712 8.53328L7.46712 6.93328L5.86712 5.33328ZM3.73379 11.7333L2.13379 13.3333L3.73379 14.9333L5.33379 13.3333L3.73379 11.7333ZM27.2005 11.7333L25.6005 13.3333L27.2005 14.9333L28.8005 13.3333L27.2005 11.7333ZM8.52337 12.7895C8.31118 12.7896 8.10382 12.8529 7.92781 12.9714C7.7518 13.09 7.61513 13.2583 7.53529 13.4549C7.45544 13.6515 7.43604 13.8674 7.47956 14.0751C7.52308 14.2828 7.62756 14.4728 7.77962 14.6208L8.10254 14.9437L3.31087 26.9229C2.86714 28.0322 3.96821 29.1333 5.07754 28.6895L17.0567 23.8979L17.3796 24.2208C17.4779 24.3232 17.5956 24.4049 17.7259 24.4612C17.8562 24.5175 17.9964 24.5472 18.1383 24.5487C18.2802 24.5501 18.421 24.5232 18.5524 24.4696C18.6837 24.416 18.8031 24.3366 18.9035 24.2363C19.0038 24.1359 19.0831 24.0166 19.1368 23.8852C19.1904 23.7538 19.2173 23.613 19.2159 23.4711C19.2144 23.3292 19.1847 23.189 19.1284 23.0587C19.0721 22.9285 18.9903 22.8107 18.888 22.7125L14.115 17.9395L9.28796 13.1125C9.18855 13.0103 9.06968 12.929 8.93836 12.8736C8.80703 12.8181 8.66593 12.7895 8.52337 12.7895ZM24.5338 16C21.3338 16 18.1338 18.1333 18.1338 18.1333C18.1338 18.1333 21.7185 18.1005 23.4838 18.1208C24.0683 18.1272 24.5338 18.6029 24.5338 19.1875V20.8C24.5338 21.6832 25.2506 22.4 26.1338 22.4C27.017 22.4 27.7338 21.6832 27.7338 20.8V19.2C27.7338 17.0666 26.1679 16 24.5338 16ZM22.9338 23.4666L21.3338 25.0666L22.9338 26.6666L24.5338 25.0666L22.9338 23.4666Z"/></svg>