<svg width="32" height="32" viewBox="0 0 32 32" xmlns="http://www.w3.org/2000/svg"><g clip-path="url(#clip0_123_3704)"><path d="M11.7829 5.31849C11.5004 5.32291 11.2312 5.43924 11.0343 5.64195C10.8375 5.84466 10.7291 6.1172 10.7329 6.39974V12.7997C10.731 12.9411 10.7571 13.0814 10.8098 13.2126C10.8625 13.3438 10.9407 13.4631 11.04 13.5638C11.1392 13.6645 11.2575 13.7444 11.3879 13.7989C11.5183 13.8535 11.6583 13.8816 11.7996 13.8816C11.941 13.8816 12.0809 13.8535 12.2113 13.7989C12.3417 13.7444 12.46 13.6645 12.5593 13.5638C12.6585 13.4631 12.7368 13.3438 12.7895 13.2126C12.8422 13.0814 12.8683 12.9411 12.8663 12.7997V6.39974C12.8682 6.25703 12.8415 6.11538 12.7878 5.98318C12.734 5.85097 12.6542 5.73091 12.5532 5.63008C12.4522 5.52926 12.332 5.44973 12.1997 5.39621C12.0674 5.34269 11.9257 5.31626 11.7829 5.31849ZM7.51628 8.51849C7.23375 8.52291 6.96451 8.63924 6.76766 8.84195C6.5708 9.04466 6.46241 9.3172 6.46628 9.59974V12.7997C6.46428 12.9411 6.4904 13.0814 6.54311 13.2126C6.59581 13.3438 6.67407 13.4631 6.77331 13.5638C6.87256 13.6645 6.99082 13.7444 7.12123 13.7989C7.25164 13.8535 7.39159 13.8816 7.53295 13.8816C7.67431 13.8816 7.81426 13.8535 7.94467 13.7989C8.07508 13.7444 8.19334 13.6645 8.29259 13.5638C8.39183 13.4631 8.47009 13.3438 8.52279 13.2126C8.5755 13.0814 8.60161 12.9411 8.59962 12.7997V9.59974C8.60157 9.45703 8.57487 9.31538 8.52109 9.18318C8.46731 9.05097 8.38756 8.93091 8.28654 8.83008C8.18552 8.72926 8.0653 8.64974 7.93299 8.59621C7.80069 8.54269 7.65899 8.51626 7.51628 8.51849ZM16.0496 8.51849C15.7671 8.52291 15.4978 8.63924 15.301 8.84195C15.1041 9.04466 14.9957 9.3172 14.9996 9.59974V12.7997C14.9976 12.9411 15.0237 13.0814 15.0764 13.2126C15.1291 13.3438 15.2074 13.4631 15.3066 13.5638C15.4059 13.6645 15.5242 13.7444 15.6546 13.7989C15.785 13.8535 15.9249 13.8816 16.0663 13.8816C16.2076 13.8816 16.3476 13.8535 16.478 13.7989C16.6084 13.7444 16.7267 13.6645 16.8259 13.5638C16.9252 13.4631 17.0034 13.3438 17.0561 13.2126C17.1088 13.0814 17.1349 12.9411 17.1329 12.7997V9.59974C17.1349 9.45703 17.1082 9.31538 17.0544 9.18318C17.0006 9.05097 16.9209 8.93091 16.8199 8.83008C16.7189 8.72926 16.5986 8.64974 16.4663 8.59621C16.334 8.54269 16.1923 8.51626 16.0496 8.51849ZM26.5496 13.8664C25.7012 13.8664 24.8869 14.2041 24.2871 14.8039L23.0913 15.9997H0.0662835C-0.102794 15.9997 -0.269469 16.0398 -0.419998 16.1168C-0.570527 16.1938 -0.700598 16.3054 -0.799488 16.4426C-0.898377 16.5797 -0.963252 16.7384 -0.988763 16.9056C-1.01427 17.0727 -0.999692 17.2435 -0.946217 17.4039L0.45795 21.6164C1.03815 23.3542 2.67382 24.5331 4.50587 24.5331H19.0934C20.9254 24.5331 22.56 23.3553 23.1392 21.6164L24.4663 17.6414L25.7954 16.3122C25.9957 16.112 26.2674 15.9997 26.5496 15.9997H29.9329C30.0743 16.0017 30.2146 15.9756 30.3458 15.9229C30.477 15.8702 30.5963 15.792 30.697 15.6927C30.7977 15.5935 30.8776 15.4752 30.9322 15.3448C30.9867 15.2144 31.0148 15.0744 31.0148 14.9331C31.0148 14.7917 30.9867 14.6518 30.9322 14.5214C30.8776 14.3909 30.7977 14.2727 30.697 14.1734C30.5963 14.0742 30.477 13.9959 30.3458 13.9432C30.2146 13.8905 30.0743 13.8644 29.9329 13.8664H26.5496Z"/></g><defs><clipPath id="clip0_123_3704"><rect width="32" height="32"/></clipPath></defs></svg>