<svg width="50" height="50" viewBox="0 0 50 50" xmlns="http://www.w3.org/2000/svg"><path d="M25 3.33325C24.5644 3.33328 24.146 3.50388 23.8346 3.80851L5.6543 18.6783C5.6333 18.6941 5.61268 18.7104 5.59245 18.7271L5.5306 18.7792V18.7825C5.36344 18.9382 5.23008 19.1266 5.1388 19.3361C5.04752 19.5455 5.00028 19.7715 5 19.9999C5 20.4419 5.17559 20.8659 5.48816 21.1784C5.80072 21.491 6.22464 21.6666 6.66667 21.6666H8.33333V39.9999C8.33333 41.8416 9.825 43.3333 11.6667 43.3333H38.3333C40.175 43.3333 41.6667 41.8416 41.6667 39.9999V21.6666H43.3333C43.7754 21.6666 44.1993 21.491 44.5118 21.1784C44.8244 20.8659 45 20.4419 45 19.9999C45.0002 19.7709 44.9531 19.5443 44.8618 19.3343C44.7706 19.1243 44.637 18.9353 44.4694 18.7792L44.4434 18.7597C44.4068 18.7265 44.3688 18.695 44.3294 18.6653L41.6667 16.4875V9.99992C41.6667 9.07992 40.92 8.33325 40 8.33325H38.3333C37.4133 8.33325 36.6667 9.07992 36.6667 9.99992V12.399L26.1296 3.77922C25.8225 3.4938 25.4192 3.33456 25 3.33325ZM30 24.9999H36.6667V38.3333H30V24.9999Z"/></svg>