<svg width="109" height="110" viewBox="0 0 109 110" fill="none" xmlns="http://www.w3.org/2000/svg">
<g clip-path="url(#clip0_6361_3601)">
<path d="M34.0505 7.42049C20.557 8.60102 10.5743 20.4946 11.7512 33.9884C11.9355 36.1017 12.4117 38.1155 13.087 40.0258C14.8845 29.2586 23.7355 20.6314 35.1158 19.6358C40.6657 19.1502 45.9207 20.5787 50.2874 23.3408C46.5716 22.6377 42.5898 22.7658 38.5539 23.9587C29.3708 26.674 22.468 34.8895 21.3859 44.4042C20.7408 50.0857 21.9818 55.355 24.5249 59.7236C26.1752 62.5579 30.6845 61.2212 30.269 57.963C29.9813 55.6987 30.006 53.315 30.3862 50.8529C31.7464 42.081 38.0542 34.5657 46.4574 31.7053C48.4267 31.0341 50.3766 30.6455 52.3029 30.4646C52.7135 68.3336 12.296 87.2776 12.296 87.2776L13.0062 95.4211C13.3986 99.9204 17.3606 103.246 21.8598 102.852L95.1498 96.4402C99.649 96.0465 102.975 92.0835 102.583 87.5842L101.873 79.4406C101.873 79.4406 98.1561 83.8686 94.0845 84.2249C90.0128 84.5811 85.586 80.8655 85.586 80.8655C85.586 80.8655 81.8694 85.2935 77.7978 85.6498C73.7261 86.006 69.2993 82.2904 69.2993 82.2904C69.2993 82.2904 65.5828 86.7184 61.5111 87.0747C57.4394 87.4309 53.0127 83.7153 53.0127 83.7153L45.2351 84.3958C45.2351 84.3958 63.8693 68.9385 60.6314 30.1287C61.3431 30.1822 62.0454 30.1796 62.7693 30.2942C71.4844 31.6693 78.9346 37.9299 81.7999 46.2746C82.6138 48.6446 83.051 50.9952 83.1655 53.295C83.3251 56.5839 88.0056 57.1207 89.1433 54.0302C90.8802 49.2953 91.1885 43.9139 89.5711 38.4468C86.958 29.6013 79.2145 22.9305 70.1502 21.4829C72.0612 20.8062 74.0725 20.3303 76.1876 20.1453C87.5679 19.1497 97.7783 26.1092 101.412 36.4012C101.747 34.4025 101.867 32.3365 101.683 30.2232C100.506 16.7294 88.6158 6.74948 75.1223 7.93001C67.4175 8.60409 60.8986 12.7999 56.9076 18.763C52.1617 11.2593 43.5071 6.59314 34.0505 7.42049Z" fill="white"/>
</g>
<defs>
<clipPath id="clip0_6361_3601">
<rect width="100.323" height="100.323" fill="white" transform="matrix(0.996195 -0.0871557 0.0868838 0.996218 0.267578 9.25586)"/>
</clipPath>
</defs>
</svg>
