<svg width="51" height="50" viewBox="0 0 51 50" xmlns="http://www.w3.org/2000/svg"><path d="M25.474 1.6667C25.041 1.6736 24.6277 1.84872 24.3216 2.15498L17.6549 8.82165C17.495 8.97522 17.3673 9.15917 17.2793 9.36272C17.1913 9.56627 17.1449 9.78532 17.1426 10.0071C17.1403 10.2288 17.1824 10.4487 17.2662 10.654C17.35 10.8593 17.4739 11.0458 17.6307 11.2026C17.7875 11.3594 17.974 11.4834 18.1793 11.5672C18.3846 11.651 18.6046 11.693 18.8263 11.6908C19.048 11.6885 19.2671 11.642 19.4706 11.5541C19.6742 11.4661 19.8581 11.3384 20.0117 11.1784L23.8333 7.3568V28.3334C23.8302 28.5542 23.871 28.7735 23.9534 28.9784C24.0357 29.1834 24.158 29.3699 24.3131 29.5272C24.4681 29.6845 24.6529 29.8094 24.8567 29.8946C25.0605 29.9799 25.2791 30.0238 25.5 30.0238C25.7209 30.0238 25.9395 29.9799 26.1433 29.8946C26.3471 29.8094 26.5319 29.6845 26.6869 29.5272C26.842 29.3699 26.9643 29.1834 27.0466 28.9784C27.129 28.7735 27.1698 28.5542 27.1667 28.3334V7.3568L30.9883 11.1784C31.1419 11.3384 31.3258 11.4661 31.5294 11.5541C31.7329 11.642 31.952 11.6885 32.1737 11.6908C32.3954 11.693 32.6154 11.651 32.8207 11.5672C33.026 11.4834 33.2125 11.3594 33.3693 11.2026C33.5261 11.0458 33.65 10.8593 33.7338 10.654C33.8176 10.4487 33.8596 10.2288 33.8574 10.0071C33.8551 9.78532 33.8087 9.56627 33.7207 9.36272C33.6327 9.15917 33.505 8.97522 33.3451 8.82165L26.6784 2.15498C26.5206 1.99708 26.3326 1.87249 26.1257 1.78862C25.9188 1.70474 25.6972 1.66328 25.474 1.6667ZM15.5 15C12.7584 15 10.5 17.2584 10.5 20V40C10.5 42.7416 12.7584 45 15.5 45H35.5C38.2416 45 40.5 42.7416 40.5 40V20C40.5 17.2584 38.2416 15 35.5 15H32.1667V18.3334H35.5C36.4417 18.3334 37.1667 19.0583 37.1667 20V40C37.1667 40.9417 36.4417 41.6667 35.5 41.6667H15.5C14.5583 41.6667 13.8333 40.9417 13.8333 40V20C13.8333 19.0583 14.5583 18.3334 15.5 18.3334H18.8333V15H15.5Z"/></svg>