<svg width="68" height="68" viewBox="0 0 68 68" xmlns="http://www.w3.org/2000/svg"><path d="M31.8738 4.5C30.6318 4.5 29.6238 5.508 29.6238 6.75V9.43066C18.1241 11.5569 9.37378 21.6463 9.37378 33.75C9.37378 47.3924 20.4814 58.5 34.1238 58.5C47.7662 58.5 58.8738 47.3924 58.8738 33.75C58.8738 21.6463 50.1234 11.5569 38.6238 9.43066V6.75C38.6238 5.508 37.6158 4.5 36.3738 4.5H31.8738ZM52.1018 8.97803C51.6542 8.97815 51.2168 9.11175 50.8455 9.36175C50.4743 9.61176 50.186 9.96681 50.0176 10.3815C49.8491 10.7962 49.8082 11.2517 49.9 11.6898C49.9918 12.1279 50.2122 12.5286 50.533 12.8408L52.783 15.0908C52.9903 15.3068 53.2386 15.4792 53.5134 15.5979C53.7882 15.7167 54.0839 15.7794 54.3833 15.7825C54.6826 15.7855 54.9795 15.7288 55.2567 15.6157C55.5338 15.5025 55.7856 15.3352 55.9973 15.1235C56.209 14.9118 56.3763 14.6601 56.4894 14.3829C56.6026 14.1058 56.6593 13.8088 56.6563 13.5095C56.6532 13.2101 56.5905 12.9144 56.4717 12.6396C56.3529 12.3648 56.1805 12.1165 55.9646 11.9092L53.7146 9.65918C53.5049 9.44364 53.2542 9.27232 52.9772 9.15532C52.7002 9.03833 52.4025 8.97804 52.1018 8.97803ZM34.1238 13.5C45.3342 13.5 54.3738 22.5396 54.3738 33.75C54.3738 44.9604 45.3342 54 34.1238 54C22.9134 54 13.8738 44.9604 13.8738 33.75C13.8738 22.5396 22.9134 13.5 34.1238 13.5ZM34.0886 17.9692C33.4927 17.9786 32.9247 18.2239 32.5095 18.6515C32.0942 19.0791 31.8656 19.654 31.8738 20.25V29.8608C31.1909 30.2551 30.6235 30.8219 30.2287 31.5045C29.8338 32.1871 29.6252 32.9614 29.6238 33.75C29.6244 34.5393 29.8326 35.3146 30.2276 35.998C30.6225 36.6814 31.1902 37.2489 31.8738 37.6436V40.5C31.8696 40.7982 31.9246 41.0942 32.0358 41.3708C32.147 41.6475 32.3121 41.8993 32.5214 42.1117C32.7308 42.324 32.9802 42.4926 33.2553 42.6077C33.5304 42.7228 33.8256 42.782 34.1238 42.782C34.422 42.782 34.7172 42.7228 34.9922 42.6077C35.2673 42.4926 35.5168 42.324 35.7261 42.1117C35.9355 41.8993 36.1006 41.6475 36.2117 41.3708C36.3229 41.0942 36.378 40.7982 36.3738 40.5V37.6392C37.0567 37.2449 37.624 36.6781 38.0189 35.9955C38.4138 35.3129 38.6224 34.5386 38.6238 33.75C38.6232 32.9607 38.4149 32.1854 38.02 31.502C37.6251 30.8186 37.0573 30.2511 36.3738 29.8564V20.25C36.3779 19.949 36.3216 19.6502 36.2081 19.3713C36.0947 19.0924 35.9265 18.8392 35.7134 18.6265C35.5003 18.4138 35.2467 18.2461 34.9676 18.1332C34.6885 18.0203 34.3896 17.9645 34.0886 17.9692Z"/></svg>